<?xml version="1.0" encoding="UTF-8" standalone="no"?>
<svg
   viewBox="0 0 160 160"
   width="160"
   height="160"
   version="1.1"
   id="svg4130"
   sodipodi:docname="blender-3d.svg"
   inkscape:version="1.2 (dc2aedaf03, 2022-05-15)"
   xmlns:inkscape="http://www.inkscape.org/namespaces/inkscape"
   xmlns:sodipodi="http://sodipodi.sourceforge.net/DTD/sodipodi-0.dtd"
   xmlns="http://www.w3.org/2000/svg"
   xmlns:svg="http://www.w3.org/2000/svg">
  <defs
     id="defs4134" />
  <sodipodi:namedview
     id="namedview4132"
     pagecolor="#505050"
     bordercolor="#eeeeee"
     borderopacity="1"
     inkscape:showpageshadow="0"
     inkscape:pageopacity="0"
     inkscape:pagecheckerboard="0"
     inkscape:deskcolor="#505050"
     showgrid="false"
     inkscape:zoom="3.8780388"
     inkscape:cx="-56.342913"
     inkscape:cy="95.28012"
     inkscape:window-width="2536"
     inkscape:window-height="1416"
     inkscape:window-x="10"
     inkscape:window-y="10"
     inkscape:window-maximized="1"
     inkscape:current-layer="svg4130" />
  <g
     id="g4138"
     transform="matrix(3.6363733,0,0,3.6363733,-7.2725659,-7.2721782)">
    <path
       fill="#01579b"
       d="M 34.932,22.478 C 33.769,21.56 32.206,21.001 30.5,21 c -1.706,0.001 -3.27,0.56 -4.433,1.478 -1.184,0.935 -1.969,2.252 -2.059,3.747 -0.091,1.536 0.57,2.965 1.732,4.023 1.185,1.076 2.873,1.752 4.761,1.752 1.887,0 3.574,-0.676 4.757,-1.753 1.162,-1.057 1.824,-2.486 1.734,-4.023 -0.09,-1.493 -0.876,-2.811 -2.06,-3.746 z"
       id="path4126" />
    <path
       fill="#ff6d00"
       d="M 45.871,25.932 C 45.612,24.109 44.98,22.397 44.01,20.837 43.119,19.404 41.975,18.149 40.613,17.092 L 40.615,17.09 40.578,17.078 C 40.55,17.053 40.528,17.024 40.499,17 L 26.249,6.438 c -0.86,-0.689 -2.12,-0.552 -2.811,0.313 -0.69,0.862 -0.551,2.121 0.313,2.811 L 29.739,14 H 10.5 C 9.125,14 8,15.125 8,16.5 8,17.875 9.125,19 10.5,19 h 7.154 L 2.873,31.602 C 1.825,32.5 1.703,34.08 2.602,35.127 3.097,35.704 3.797,36 4.501,36 5.077,36 5.655,35.802 6.127,35.398 l 8.954,-7.675 C 15.059,28.53 15.042,29.261 15.046,29.484 15.046,33 19,42 30.682,42 39,42 45.962,37 45.962,28.739 c 0.072,-0.934 0.041,-1.872 -0.091,-2.807 z m -6.346,3.221 c -0.401,1.087 -1.05,2.104 -1.935,2.992 -1.81,1.82 -4.343,2.85 -7.088,2.854 -2.745,0.005 -5.28,-1.017 -7.091,-2.832 -0.885,-0.885 -1.535,-1.901 -1.937,-2.986 -0.392,-1.065 -0.545,-2.195 -0.444,-3.335 0.098,-1.116 0.432,-2.179 0.971,-3.141 0.529,-0.946 1.257,-1.8 2.154,-2.524 1.76,-1.414 3.999,-2.179 6.345,-2.182 2.346,-0.003 4.584,0.756 6.345,2.164 0.897,0.72 1.624,1.571 2.152,2.515 0.539,0.961 0.874,2.023 0.973,3.138 0.1,1.142 -0.052,2.271 -0.445,3.337 z"
       id="path4128" />
  </g>
</svg>
