<?xml version="1.0" encoding="UTF-8" standalone="no"?>
<svg
   viewBox="0 0 48 48"
   width="48px"
   height="48px"
   version="1.1"
   id="svg1289"
   sodipodi:docname="discord.svg"
   inkscape:version="1.2 (dc2aedaf03, 2022-05-15)"
   xmlns:inkscape="http://www.inkscape.org/namespaces/inkscape"
   xmlns:sodipodi="http://sodipodi.sourceforge.net/DTD/sodipodi-0.dtd"
   xmlns="http://www.w3.org/2000/svg"
   xmlns:svg="http://www.w3.org/2000/svg">
  <defs
     id="defs1293" />
  <sodipodi:namedview
     id="namedview1291"
     pagecolor="#505050"
     bordercolor="#eeeeee"
     borderopacity="1"
     inkscape:showpageshadow="0"
     inkscape:pageopacity="0"
     inkscape:pagecheckerboard="0"
     inkscape:deskcolor="#505050"
     showgrid="false"
     inkscape:zoom="21.395833"
     inkscape:cx="16.148004"
     inkscape:cy="24.046738"
     inkscape:window-width="2536"
     inkscape:window-height="1416"
     inkscape:window-x="10"
     inkscape:window-y="10"
     inkscape:window-maximized="1"
     inkscape:current-layer="svg1289" />
  <path
     fill="#ffffff"
     d="m 41.4528,11.0208 c 0,0 -4.992,-3.8592 -10.9056,-4.3008 l -0.5184,1.056 c 5.3376,1.2864 7.776,3.1488 10.3296,5.4336 C 35.9616,10.9632 31.6032,8.64 24,8.64 16.3968,8.64 12.0384,10.9632 7.6416,13.2096 10.1952,10.9248 13.1136,8.8512 17.9712,7.776 L 17.4528,6.72 c -6.2016,0.5952 -10.9056,4.3008 -10.9056,4.3008 0,0 -5.5872,8.0448 -6.5472,23.7696 5.6448,6.4512 14.1888,6.4896 14.1888,6.4896 l 1.7664,-2.3616 C 12.9408,37.8816 9.504,36.0192 6.5472,32.64 c 3.5328,2.6496 8.8512,4.8 17.4528,4.8 8.6016,0 13.92,-2.1504 17.4528,-4.8 -2.9568,3.3792 -6.3936,5.2416 -9.408,6.2784 l 1.7664,2.3616 c 0,0 8.544,-0.0384 14.1888,-6.4896 C 47.04,19.0656 41.4528,11.0208 41.4528,11.0208 Z M 17.28,31.68 c -2.112,0 -3.84,-2.1504 -3.84,-4.8 0,-2.6496 1.728,-4.8 3.84,-4.8 2.112,0 3.84,2.1504 3.84,4.8 0,2.6496 -1.728,4.8 -3.84,4.8 z m 13.44,0 c -2.112,0 -3.84,-2.1504 -3.84,-4.8 0,-2.6496 1.728,-4.8 3.84,-4.8 2.112,0 3.84,2.1504 3.84,4.8 0,2.6496 -1.728,4.8 -3.84,4.8 z"
     id="path1287"
     style="stroke-width:1.92" />
</svg>
