<?xml version="1.0" encoding="UTF-8" standalone="no"?>
<svg
   version="1.0"
   viewBox="0 0 219.2126 219.2126"
   id="svg1150"
   sodipodi:docname="dot-files.svg"
   width="58mm"
   height="58mm"
   inkscape:version="1.2.1 (9c6d41e410, 2022-07-14, custom)"
   inkscape:export-filename="dot-files.svg"
   inkscape:export-xdpi="96"
   inkscape:export-ydpi="96"
   xmlns:inkscape="http://www.inkscape.org/namespaces/inkscape"
   xmlns:sodipodi="http://sodipodi.sourceforge.net/DTD/sodipodi-0.dtd"
   xmlns="http://www.w3.org/2000/svg"
   xmlns:svg="http://www.w3.org/2000/svg">
  <defs
     id="defs1154" />
  <sodipodi:namedview
     id="namedview1152"
     pagecolor="#505050"
     bordercolor="#eeeeee"
     borderopacity="1"
     inkscape:showpageshadow="0"
     inkscape:pageopacity="0"
     inkscape:pagecheckerboard="0"
     inkscape:deskcolor="#505050"
     showgrid="false"
     inkscape:zoom="1.7406015"
     inkscape:cx="82.730022"
     inkscape:cy="167.18359"
     inkscape:window-width="2540"
     inkscape:window-height="1420"
     inkscape:window-x="10"
     inkscape:window-y="10"
     inkscape:window-maximized="1"
     inkscape:current-layer="svg1150"
     inkscape:document-units="mm" />
  <path
     d="m 106.77982,61.850072 c 0,0.618482 -0.61848,0.618482 -0.61848,0.618482 h -0.61848 c -0.61849,0 -0.61849,-0.618482 -1.23697,-1.236968 0,0 -0.61849,-0.618485 -0.61849,-1.236967 0,-0.618486 0,-0.618486 0.61849,-0.618486 l 1.23697,0.618486 c 0.61848,0.618482 1.23696,1.236967 1.23696,1.855453 m -8.040295,0.618482 c -0.618482,0 -0.618482,0 -0.618482,-0.618482 0,-0.618486 0,-1.236971 0.618482,-1.855453 1.236971,0 1.855455,-0.618486 1.855455,-0.618486 0.61849,0 0.61849,0.618486 0.61849,0.618486 0,0.618482 -0.61849,1.236967 -1.855459,2.473935 h -0.618486 m -6.803323,-0.618482 c -2.473939,-1.236971 -3.092421,-3.092421 -3.092421,-6.184845 0,-1.855453 0,-3.092417 1.236964,-4.329389 0.618489,-1.236967 1.855457,-1.855453 3.09242,-1.855453 1.236976,0 1.855457,0.618486 3.092425,1.855453 0.618486,1.855454 1.236968,3.710907 1.236968,5.56636 v 1.236968 h 0.618485 V 57.52068 c 0.618482,0 0.618482,-1.236968 0.618482,-3.710906 0,-1.85545 0,-3.710903 -1.236967,-5.566356 -1.236968,-1.855454 -2.473936,-3.092421 -4.947871,-3.092421 -1.855453,0 -3.710906,1.236967 -4.329392,3.092421 -1.236967,2.473935 -1.48436,4.329392 -1.48436,7.421809 0,2.473939 0.865878,4.947874 3.33981,7.421813 0.618489,-0.618486 1.236967,-0.618486 1.855457,-1.236968 m 77.310528,87.206268 c 0.61849,0 0.61849,-0.24737 0.61849,-0.80403 0,-1.36066 -0.61849,-2.96872 -2.47394,-4.76233 -1.85546,-1.85545 -4.94788,-3.03057 -8.65878,-3.52535 -0.61849,-0.0618 -1.23697,-0.0618 -1.23697,-0.0618 -0.61848,-0.1237 -0.61848,-0.1237 -1.23697,-0.1237 -0.61848,-0.0618 -1.85545,-0.18554 -2.47393,-0.3092 1.85545,-5.7519 2.47393,-10.82347 2.47393,-15.27656 0,-6.18485 -1.23697,-10.51424 -3.7109,-14.22514 -2.47394,-3.7109 -4.94788,-5.56636 -8.0403,-6.18484 -0.61848,0.61848 -0.61848,0.61848 -0.61848,1.23697 3.09242,1.23697 6.18484,3.7109 8.04029,7.42181 1.85546,4.32939 2.47394,8.04029 2.47394,12.36968 0,3.46352 -0.61848,8.59693 -3.09242,15.15287 -2.47394,0.98957 -4.94787,3.27796 -6.80333,6.86517 0,0.55663 0,0.86588 0.61849,0.86588 0,0 0.61848,-0.55664 1.23697,-1.60806 1.23696,-1.05142 1.85545,-2.10285 3.09241,-3.15427 1.85546,-1.05142 3.09243,-1.60806 4.94788,-1.60806 3.09242,0 6.18484,0.43294 8.04029,1.29882 2.47394,0.80403 3.71091,1.6699 4.32939,2.65948 0.61849,0.92773 1.23697,1.7936 1.85546,2.59763 0,0.80403 0.61848,1.17512 0.61848,1.17512 M 112.34618,59.376133 c -0.61848,-0.618482 -0.61848,-1.855453 -0.61848,-3.092421 0,-2.473938 0,-3.710902 1.23696,-5.566359 1.23697,-1.236968 2.47394,-1.85545 3.71092,-1.85545 1.85545,0 3.09241,1.236968 4.32938,2.473935 0.61849,1.855454 1.23697,3.092425 1.23697,4.947874 0,3.092421 -1.23697,4.947874 -3.7109,5.56636 0,0 0.61848,0.618482 1.23696,0.618482 1.23697,0 1.85546,0.618486 3.09243,1.236971 0.61848,-3.710906 1.23697,-6.184845 1.23697,-9.277262 0,-3.71091 -0.61849,-6.184845 -1.85546,-8.040299 -1.85545,-1.855453 -3.7109,-2.473935 -6.18484,-2.473935 -1.85546,0 -3.71091,0.618482 -5.56636,1.855454 -1.23697,1.855453 -1.85546,3.09242 -1.85546,4.94787 0,3.092421 0.61849,5.566359 1.85546,8.040298 0.61848,0 1.23697,0.618482 1.85545,0.618482 m 7.42181,9.895748 c -8.04029,5.56636 -14.22513,8.040295 -19.17301,8.040295 -4.32939,0 -8.658778,-1.855449 -12.369685,-4.94787 0.618486,1.236964 1.236968,2.473935 1.85545,3.092421 l 3.71091,3.710902 c 2.473935,2.473935 5.566356,3.710907 8.658775,3.710907 4.32939,0 9.27727,-2.473939 15.46211,-6.803328 l 5.56636,-3.710902 c 1.23697,-1.236972 2.47393,-2.473939 2.47393,-4.329392 0,-0.618486 0,-1.236968 -0.61848,-1.236968 -0.61848,-1.236967 -3.71091,-3.092421 -9.89575,-4.947874 -5.56636,-2.473939 -9.89574,-3.710906 -12.36968,-3.710906 -1.85545,0 -4.947877,1.236967 -9.277265,3.710906 -3.71091,2.473935 -6.184842,4.947874 -6.184842,7.421809 0,0 0.618482,0.618486 1.236968,1.855453 3.710906,3.092421 7.421809,4.947874 11.132715,4.947874 4.947874,0 11.132714,-2.473938 19.173014,-8.65878 v 1.236971 c 0.61848,0 0.61848,0.618482 0.61848,0.618482 m 14.22514,124.933809 c 2.47393,4.65101 6.80332,6.98887 11.7512,6.98887 1.23697,0 2.47394,-0.18553 3.71091,-0.55663 1.23697,-0.24737 2.47394,-0.68033 3.09242,-1.17512 0.61848,-0.43294 1.23697,-0.86588 1.85545,-1.36067 1.23697,-0.43293 1.23697,-0.74218 1.85545,-1.05142 l 10.51423,-9.09172 c 2.47395,-1.97296 4.94788,-3.69853 8.0403,-5.19526 2.47394,-1.48437 4.94787,-2.47394 6.18484,-3.03058 1.85545,-0.49479 3.09242,-1.23696 4.32939,-2.22654 0.61848,-0.92773 1.23697,-2.10285 1.23697,-3.58721 0,-1.7936 -1.23697,-3.15427 -2.47394,-4.14385 -1.23697,-0.98957 -2.47393,-1.6699 -3.7109,-2.10284 -1.23697,-0.43294 -2.47394,-1.42252 -4.32939,-3.09242 -1.23697,-1.60806 -2.47394,-3.8346 -3.09242,-6.74148 l -0.61849,-3.58721 c -0.61848,-1.66991 -0.61848,-2.90688 -1.23696,-3.58721 0,-0.18553 0,-0.24737 -0.61849,-0.24737 -0.61848,0 -1.85545,0.55664 -2.47393,1.60807 -1.23698,1.05142 -2.47394,2.22654 -3.71091,3.46351 -0.61848,1.23697 -2.47394,2.35024 -3.7109,3.40166 -1.85546,1.05142 -3.71091,1.60806 -4.94788,1.60806 -4.94787,0 -7.42181,-1.36066 -9.27726,-4.02015 -1.23697,-1.97915 -1.85546,-4.26754 -2.47394,-6.86517 -1.23697,-1.05143 -1.85545,-1.60806 -3.09242,-1.60806 -3.09242,0 -4.32939,3.21612 -4.32939,9.7102 v 19.23484 c 0,0.55664 -0.61848,1.79361 -0.61848,3.71091 -0.61849,1.9173 -0.61849,4.09437 -0.61849,6.55593 l -1.23697,6.86518 v 0.10514 m -89.680208,-3.27179 c 5.751901,0.84113 12.36968,2.64093 19.853337,5.38699 7.483661,2.72134 12.060442,4.14385 13.730351,4.14385 4.329388,0 7.916598,-1.9173 10.885323,-5.62202 0.618482,-1.19986 0.618482,-2.61 0.618482,-4.23044 0,-5.84467 -3.525359,-13.23556 -10.576079,-22.20358 l -4.205691,-5.62821 c -0.865879,-1.17512 -1.917302,-2.96872 -3.27797,-5.38081 -1.298815,-2.41209 -2.473935,-4.26754 -3.401661,-5.56635 -0.804027,-1.42252 -2.102846,-2.84504 -3.772755,-4.26755 -1.608057,-1.42251 -3.46351,-2.35024 -5.504508,-2.84502 -2.597635,0.49478 -4.391236,1.36066 -5.257115,2.53578 -0.865878,1.17512 -1.360663,2.47394 -1.484364,3.8346 -0.185537,1.29882 -0.556633,2.1647 -1.175119,2.59764 -0.618482,0.37107 -1.669905,0.68033 -3.092417,0.98957 -0.309241,0 -0.865882,0 -1.669909,0.0618 h -1.669905 c -3.277969,0 -5.504511,0.37108 -6.67963,0.98958 -1.546211,1.7936 -2.350241,3.8346 -2.350241,5.99929 0,0.98958 0.247381,2.65949 0.742182,5.00973 0.494784,2.28838 0.742179,4.14384 0.742179,5.44266 0,2.53578 -0.742179,5.07157 -2.28839,7.60736 -1.546212,2.65948 -2.350241,4.63863 -2.350241,6.04877 0.618484,2.39972 4.700482,4.08818 12.184141,5.07776 m 20.595519,-56.22022 c 0,-4.26754 1.113271,-8.96802 3.401662,-14.53438 2.226546,-5.56636 4.453088,-9.27726 6.617782,-11.7512 -0.123703,-0.61848 -0.432937,-0.61848 -0.927726,-0.61848 l -0.618482,-0.61847 c -1.793605,1.85545 -3.958299,6.18484 -6.555931,12.36968 -2.597635,5.56636 -3.958299,10.69978 -3.958299,14.47253 0,2.78318 0.680334,5.19527 1.917302,7.29812 1.360667,2.041 4.638629,5.00972 9.833899,8.78247 l 6.555931,4.26755 c 6.988876,6.06114 10.699774,10.26683 10.699774,12.74077 0,1.29881 -0.618481,2.59763 -2.473938,4.02015 -1.23696,1.48436 -2.906869,2.22654 -4.329385,2.22654 -0.123704,0 -0.185537,0.12371 -0.185537,0.43294 0,0.0618 0.618486,1.29882 1.917305,3.7109 2.597628,3.52537 8.163991,5.25712 15.585802,5.25712 13.60665,0 24.12089,-5.56636 32.16118,-16.69907 0,-3.09242 0,-5.00973 -0.61848,-5.81376 v -2.28839 c 0,-4.02014 0.61848,-7.05072 1.85545,-9.02987 1.23696,-1.97915 2.47393,-2.90687 4.32939,-2.90687 1.23697,0 2.47394,0.43293 3.7109,1.36066 0.61849,-4.76233 0.61849,-8.90617 0.61849,-12.61707 0,-5.62821 0,-10.26685 -1.23697,-14.59623 -0.61848,-3.71091 -1.85545,-6.80333 -3.09242,-9.27726 l -3.71092,-5.56636 c -1.23697,-1.85546 -1.85545,-3.7109 -3.09242,-5.566359 -0.61849,-2.473939 -1.23697,-4.329392 -1.23697,-7.421813 -1.85545,-3.092417 -3.09242,-6.184841 -4.94788,-9.277262 -1.23696,-3.092421 -2.47393,-6.184841 -3.7109,-8.65878 l -5.56636,4.329388 c -6.18484,4.329392 -11.13272,6.184845 -15.46211,6.184845 -3.710899,0 -6.80332,-0.618485 -8.658777,-3.09242 L 90.0189,78.703734 c 0,1.855457 -0.618485,4.329392 -1.855449,6.803327 L 84.267,92.928874 c -1.731757,4.329388 -2.659487,6.803327 -2.845028,8.658786 -0.24737,1.23696 -0.432941,2.47393 -0.556634,2.47393 l -4.638637,9.27726 c -5.009718,9.27727 -7.545505,17.87419 -7.545505,24.98676 0,1.42252 0.123704,2.90688 0.371074,4.39124 -2.78318,-1.9173 -4.143844,-4.57678 -4.143844,-8.04029 m 44.283484,58.5086 c -8.04029,0 -14.225136,1.08854 -18.554528,3.24705 v -0.18554 c -3.092421,3.71091 -6.555927,5.62821 -11.380108,5.62821 -3.030573,0 -7.792898,-1.17512 -14.225136,-3.52536 -6.494083,-2.22656 -12.245987,-3.93357 -17.255706,-5.05921 -0.494785,-0.14227 -1.60806,-0.35256 -3.401665,-0.63704 -1.731757,-0.27831 -3.339814,-0.56282 -4.762326,-0.84733 -1.298819,-0.27833 -2.783178,-0.69888 -4.39124,-1.26789 -1.54621,-0.4886 -2.783178,-1.12564 -3.710904,-1.89874 -0.853508,-0.7793 -1.274078,-1.65754 -1.274078,-2.64093 0,-0.98958 0.210286,-2.04719 0.630854,-3.17283 0.39583,-0.68033 0.828769,-1.36066 1.261708,-1.97915 0.432938,-0.68033 0.804029,-1.29881 1.051423,-1.9173 0.371089,-0.55663 0.618484,-1.11327 0.865878,-1.73175 0.247396,-0.55664 0.494787,-1.11328 0.618484,-1.79361 0.123708,-0.61848 0.247382,-1.23697 0.247382,-1.85545 0,-0.61848 -0.247382,-2.47394 -0.742182,-5.7519 -0.494787,-3.21612 -0.742181,-5.25712 -0.742181,-6.123 0,-2.72133 0.618484,-4.88602 1.97915,-6.43223 1.360667,-1.54621 2.659483,-2.35024 4.02015,-2.35024 h 7.112568 c 0.556638,0 1.422513,-0.30921 2.721328,-1.05143 0.432941,-0.98957 0.804031,-1.7936 1.051423,-2.53578 0.309241,-0.74219 0.432941,-1.29882 0.556634,-1.54621 0.123704,-0.37111 0.24737,-0.74218 0.371112,-1.05142 0.24737,-0.43295 0.556637,-0.92773 0.989575,-1.42252 -0.494786,-0.61848 -0.742182,-1.42251 -0.742182,-2.41209 0,-0.68033 0,-1.29881 0.123704,-1.66991 0,-2.22654 1.051423,-5.38081 3.277969,-9.52465 l 2.164694,-3.89645 c 1.793605,-3.33982 3.154269,-5.81375 4.143844,-8.28769 1.051423,-2.47394 2.164694,-6.18485 3.401661,-11.13272 0.989575,-4.32938 3.339814,-8.658773 7.05072,-12.988165 l 4.638633,-5.566356 c 3.216117,-3.710902 5.31896,-6.803327 6.494083,-9.277262 1.175119,-2.473943 1.793605,-5.56636 1.793605,-8.040299 0,-1.236967 -0.309203,-4.947874 -0.989575,-11.132715 -0.618486,-6.184842 -0.92773,-12.369683 -0.92773,-17.936043 0,-4.329388 0.371111,-7.42181 1.175123,-10.514231 0.804034,-3.092421 2.226546,-6.184842 4.329396,-8.658779 1.855449,-2.473937 4.329384,-4.947874 8.040291,-6.184842 3.710887,-1.236969 8.040279,-1.855453 12.988149,-1.855453 1.85545,0 3.71091,0 5.56636,0.618484 1.85545,0 4.32939,0.618485 7.42181,1.855453 2.47394,1.236969 4.94787,2.473937 6.80333,4.329389 2.47393,1.855453 4.32939,4.947874 6.18484,8.040296 1.23697,3.710905 2.47394,7.421809 3.09242,12.369683 0.61849,3.092421 0.61849,6.184845 1.23697,10.514234 0,3.710906 0.61848,6.184841 0.61848,8.040294 0.61849,1.855454 0.61849,4.329393 1.23697,7.42181 0.61848,2.473938 1.23697,4.947874 2.47394,6.803327 1.23697,2.473939 2.47393,4.947874 4.32939,7.421809 1.85545,3.092421 4.32939,6.184845 6.80333,9.895748 5.56635,6.184845 9.89574,12.988168 12.36968,19.791488 3.09242,6.18485 4.94788,14.22514 4.94788,22.82208 0,4.26754 -0.61849,8.41138 -1.85546,12.43152 1.23697,0 1.85546,0.49479 2.47394,1.36067 0.61848,0.86588 1.23697,2.72133 1.85545,5.62821 l 0.61848,4.57678 c 0.61849,1.36067 1.23697,2.65948 3.09242,3.77276 1.23697,1.11327 2.47394,2.04099 4.3294,2.78318 1.23696,0.61848 3.09242,1.48436 4.32938,2.59763 1.23698,1.23697 1.85546,2.53578 1.85546,3.89645 0,2.10285 -0.61848,3.64906 -1.85546,4.76233 -1.23696,1.23697 -2.47393,2.10285 -4.32938,2.65948 -1.23697,0.61848 -3.71091,1.85545 -7.42182,3.59958 -3.09241,1.83071 -6.18483,4.05107 -9.27726,6.67963 l -6.18484,5.2633 c -2.47394,2.41209 -4.94787,4.14384 -6.80333,5.19527 -1.85545,1.11327 -4.32939,1.6699 -6.80333,1.6699 l -4.32938,-0.49478 c -4.94787,-1.29882 -8.04029,-3.77276 -9.89575,-7.54551 -9.89575,-1.19986 -17.93604,-1.79361 -22.88392,-1.79361"
     id="path1148"
     style="fill:#000000;stroke-width:0.618486"
     sodipodi:nodetypes="ccscsccccsccccccscscscccssscscccscccccsscccscccccscccccscscscscscscscccscsssccsccscccsccccsccccccccsssccccscccsccsssccccccscsccccccsccccscscscccccccccscccscsscsccssscsccscccccscccccccscccccsccccccscccccscsssscccccscccccccsscsccssccccccccccccscscccccscccccccccc" />
  <path
     d="m 106.77982,61.850072 c 0,0.618482 -0.61848,0.618482 -0.61848,0.618482 h -0.61848 c -0.61849,0 -0.61849,-0.618482 -1.23697,-1.236968 0,0 -0.61849,-0.618485 -0.61849,-1.236967 0,-0.618486 0,-0.618486 0.61849,-0.618486 l 1.23697,0.618486 c 0.61848,0.618482 1.23696,1.236967 1.23696,1.855453 m -8.040295,0.618482 c -0.618482,0 -0.618482,0 -0.618482,-0.618482 0,-0.618486 0,-1.236971 0.618482,-1.855453 1.236971,0 1.855455,-0.618486 1.855455,-0.618486 0.61849,0 0.61849,0.618486 0.61849,0.618486 0,0.618482 -0.61849,1.236967 -1.855459,2.473935 h -0.618486 m -6.803323,-0.618482 c -2.473939,-1.236971 -3.092421,-3.092421 -3.092421,-6.184845 0,-1.855453 0,-3.092417 1.236964,-4.329389 0.618489,-1.236967 1.855457,-1.855453 3.09242,-1.855453 1.236976,0 1.855457,0.618486 3.092425,1.855453 0.618486,1.855454 1.236968,3.710907 1.236968,5.56636 v 1.236968 h 0.618485 V 57.52068 c 0.618482,0 0.618482,-1.236968 0.618482,-3.710906 0,-1.85545 0,-3.710903 -1.236967,-5.566356 -1.236968,-1.855454 -2.473936,-3.092421 -4.947871,-3.092421 -1.855453,0 -3.710906,1.236967 -4.329392,3.092421 -1.236967,2.473935 -1.48436,4.329392 -1.48436,7.421809 0,2.473939 0.865878,4.947874 3.33981,7.421813 0.618489,-0.618486 1.236967,-0.618486 1.855457,-1.236968 m 77.310528,87.206268 c 0.61849,0 0.61849,-0.24737 0.61849,-0.80403 0,-1.36066 -0.61849,-2.96872 -2.47394,-4.76233 -1.85546,-1.85545 -4.94788,-3.03057 -8.65878,-3.52535 -0.61849,-0.0618 -1.23697,-0.0618 -1.23697,-0.0618 -0.61848,-0.1237 -0.61848,-0.1237 -1.23697,-0.1237 -0.61848,-0.0618 -1.85545,-0.18554 -2.47393,-0.3092 1.85545,-5.7519 2.47393,-10.82347 2.47393,-15.27656 0,-6.18485 -1.23697,-10.51424 -3.7109,-14.22514 -2.47394,-3.7109 -4.94788,-5.56636 -8.0403,-6.18484 -0.61848,0.61848 -0.61848,0.61848 -0.61848,1.23697 3.09242,1.23697 6.18484,3.7109 8.04029,7.42181 1.85546,4.32939 2.47394,8.04029 2.47394,12.36968 0,3.46352 -0.61848,8.59693 -3.09242,15.15287 -2.47394,0.98957 -4.94787,3.27796 -6.80333,6.86517 0,0.55663 0,0.86588 0.61849,0.86588 0,0 0.61848,-0.55664 1.23697,-1.60806 1.23696,-1.05142 1.85545,-2.10285 3.09241,-3.15427 1.85546,-1.05142 3.09243,-1.60806 4.94788,-1.60806 3.09242,0 6.18484,0.43294 8.04029,1.29882 2.47394,0.80403 3.71091,1.6699 4.32939,2.65948 0.61849,0.92773 1.23697,1.7936 1.85546,2.59763 0,0.80403 0.61848,1.17512 0.61848,1.17512 M 112.34618,59.376133 c -0.61848,-0.618482 -0.61848,-1.855453 -0.61848,-3.092421 0,-2.473938 0,-3.710902 1.23696,-5.566359 1.23697,-1.236968 2.47394,-1.85545 3.71092,-1.85545 1.85545,0 3.09241,1.236968 4.32938,2.473935 0.61849,1.855454 1.23697,3.092425 1.23697,4.947874 0,3.092421 -1.23697,4.947874 -3.7109,5.56636 0,0 0.61848,0.618482 1.23696,0.618482 1.23697,0 1.85546,0.618486 3.09243,1.236971 0.61848,-3.710906 1.23697,-6.184845 1.23697,-9.277262 0,-3.71091 -0.61849,-6.184845 -1.85546,-8.040299 -1.85545,-1.855453 -3.7109,-2.473935 -6.18484,-2.473935 -1.85546,0 -3.71091,0.618482 -5.56636,1.855454 -1.23697,1.855453 -1.85546,3.09242 -1.85546,4.94787 0,3.092421 0.61849,5.566359 1.85546,8.040298 0.61848,0 1.23697,0.618482 1.85545,0.618482 m 7.42181,9.895748 c -8.04029,5.56636 -14.22513,8.040295 -19.17301,8.040295 -4.32939,0 -8.658778,-1.855449 -12.369685,-4.94787 0.618486,1.236964 1.236968,2.473935 1.85545,3.092421 l 3.71091,3.710902 c 2.473935,2.473935 5.566356,3.710907 8.658775,3.710907 4.32939,0 9.27727,-2.473939 15.46211,-6.803328 l 5.56636,-3.710902 c 1.23697,-1.236972 2.47393,-2.473939 2.47393,-4.329392 0,-0.618486 0,-1.236968 -0.61848,-1.236968 -0.61848,-1.236967 -3.71091,-3.092421 -9.89575,-4.947874 -5.56636,-2.473939 -9.89574,-3.710906 -12.36968,-3.710906 -1.85545,0 -4.947877,1.236967 -9.277265,3.710906 -3.71091,2.473935 -6.184842,4.947874 -6.184842,7.421809 0,0 0.618482,0.618486 1.236968,1.855453 3.710906,3.092421 7.421809,4.947874 11.132715,4.947874 4.947874,0 11.132714,-2.473938 19.173014,-8.65878 v 1.236971 c 0.61848,0 0.61848,0.618482 0.61848,0.618482 m 14.22514,124.933809 c 2.47393,4.65101 6.80332,6.98887 11.7512,6.98887 1.23697,0 2.47394,-0.18553 3.71091,-0.55663 1.23697,-0.24737 2.47394,-0.68033 3.09242,-1.17512 0.61848,-0.43294 1.23697,-0.86588 1.85545,-1.36067 1.23697,-0.43293 1.23697,-0.74218 1.85545,-1.05142 l 10.51423,-9.09172 c 2.47395,-1.97296 4.94788,-3.69853 8.0403,-5.19526 2.47394,-1.48437 4.94787,-2.47394 6.18484,-3.03058 1.85545,-0.49479 3.09242,-1.23696 4.32939,-2.22654 0.61848,-0.92773 1.23697,-2.10285 1.23697,-3.58721 0,-1.7936 -1.23697,-3.15427 -2.47394,-4.14385 -1.23697,-0.98957 -2.47393,-1.6699 -3.7109,-2.10284 -1.23697,-0.43294 -2.47394,-1.42252 -4.32939,-3.09242 -1.23697,-1.60806 -2.47394,-3.8346 -3.09242,-6.74148 l -0.61849,-3.58721 c -0.61848,-1.66991 -0.61848,-2.90688 -1.23696,-3.58721 0,-0.18553 0,-0.24737 -0.61849,-0.24737 -0.61848,0 -1.85545,0.55664 -2.47393,1.60807 -1.23698,1.05142 -2.47394,2.22654 -3.71091,3.46351 -0.61848,1.23697 -2.47394,2.35024 -3.7109,3.40166 -1.85546,1.05142 -3.71091,1.60806 -4.94788,1.60806 -4.94787,0 -7.42181,-1.36066 -9.27726,-4.02015 -1.23697,-1.97915 -1.85546,-4.26754 -2.47394,-6.86517 -1.23697,-1.05143 -1.85545,-1.60806 -3.09242,-1.60806 -3.09242,0 -4.32939,3.21612 -4.32939,9.7102 v 19.23484 c 0,0.55664 -0.61848,1.79361 -0.61848,3.71091 -0.61849,1.9173 -0.61849,4.09437 -0.61849,6.55593 l -1.23697,6.86518 v 0.10514 m -89.680208,-3.27179 c 5.751901,0.84113 12.36968,2.64093 19.853337,5.38699 7.483661,2.72134 12.060442,4.14385 13.730351,4.14385 4.329388,0 7.916598,-1.9173 10.885323,-5.62202 0.618482,-1.19986 0.618482,-2.61 0.618482,-4.23044 0,-5.84467 -3.525359,-13.23556 -10.576079,-22.20358 l -4.205691,-5.62821 c -0.865879,-1.17512 -1.917302,-2.96872 -3.27797,-5.38081 -1.298815,-2.41209 -2.473935,-4.26754 -3.401661,-5.56635 -0.804027,-1.42252 -2.102846,-2.84504 -3.772755,-4.26755 -1.608057,-1.42251 -3.46351,-2.35024 -5.504508,-2.84502 -2.597635,0.49478 -4.391236,1.36066 -5.257115,2.53578 -0.865878,1.17512 -1.360663,2.47394 -1.484364,3.8346 -0.185537,1.29882 -0.556633,2.1647 -1.175119,2.59764 -0.618482,0.37107 -1.669905,0.68033 -3.092417,0.98957 -0.309241,0 -0.865882,0 -1.669909,0.0618 h -1.669905 c -3.277969,0 -5.504511,0.37108 -6.67963,0.98958 -1.546211,1.7936 -2.350241,3.8346 -2.350241,5.99929 0,0.98958 0.247381,2.65949 0.742182,5.00973 0.494784,2.28838 0.742179,4.14384 0.742179,5.44266 0,2.53578 -0.742179,5.07157 -2.28839,7.60736 -1.546212,2.65948 -2.350241,4.63863 -2.350241,6.04877 0.618484,2.39972 4.700482,4.08818 12.184141,5.07776 m 20.595519,-56.22022 c 0,-4.26754 1.113271,-8.96802 3.401662,-14.53438 2.226546,-5.56636 4.453088,-9.27726 6.617782,-11.7512 -0.123703,-0.61848 -0.432937,-0.61848 -0.927726,-0.61848 l -0.618482,-0.61847 c -1.793605,1.85545 -3.958299,6.18484 -6.555931,12.36968 -2.597635,5.56636 -3.958299,10.69978 -3.958299,14.47253 0,2.78318 0.680334,5.19527 1.917302,7.29812 1.360667,2.041 4.638629,5.00972 9.833899,8.78247 l 6.555931,4.26755 c 6.988876,6.06114 10.699774,10.26683 10.699774,12.74077 0,1.29881 -0.618481,2.59763 -2.473938,4.02015 -1.23696,1.48436 -2.906869,2.22654 -4.329385,2.22654 -0.123704,0 -0.185537,0.12371 -0.185537,0.43294 0,0.0618 0.618486,1.29882 1.917305,3.7109 2.597628,3.52537 8.163991,5.25712 15.585802,5.25712 13.60665,0 24.12089,-5.56636 32.16118,-16.69907 0,-3.09242 0,-5.00973 -0.61848,-5.81376 v -2.28839 c 0,-4.02014 0.61848,-7.05072 1.85545,-9.02987 1.23696,-1.97915 2.47393,-2.90687 4.32939,-2.90687 1.23697,0 2.47394,0.43293 3.7109,1.36066 0.61849,-4.76233 0.61849,-8.90617 0.61849,-12.61707 0,-5.62821 0,-10.26685 -1.23697,-14.59623 -0.61848,-3.71091 -1.85545,-6.80333 -3.09242,-9.27726 l -3.71092,-5.56636 c -1.23697,-1.85546 -1.85545,-3.7109 -3.09242,-5.566359 -0.61849,-2.473939 -1.23697,-4.329392 -1.23697,-7.421813 -1.85545,-3.092417 -3.09242,-6.184841 -4.94788,-9.277262 -1.23696,-3.092421 -2.47393,-6.184841 -3.7109,-8.65878 l -5.56636,4.329388 c -6.18484,4.329392 -11.13272,6.184845 -15.46211,6.184845 -3.710899,0 -6.80332,-0.618485 -8.658777,-3.09242 L 90.0189,78.703734 c 0,1.855457 -0.618485,4.329392 -1.855449,6.803327 L 84.267,92.928874 c -1.731757,4.329388 -2.659487,6.803327 -2.845028,8.658786 -0.24737,1.23696 -0.432941,2.47393 -0.556634,2.47393 l -4.638637,9.27726 c -5.009718,9.27727 -7.545505,17.87419 -7.545505,24.98676 0,1.42252 0.123704,2.90688 0.371074,4.39124 -2.78318,-1.9173 -4.143844,-4.57678 -4.143844,-8.04029 m 44.283484,58.5086 c -8.04029,0 -14.225136,1.08854 -18.554528,3.24705 v -0.18554 c -3.092421,3.71091 -6.555927,5.62821 -11.380108,5.62821 -3.030573,0 -7.792898,-1.17512 -14.225136,-3.52536 -6.494083,-2.22656 -12.245987,-3.93357 -17.255706,-5.05921 -0.494785,-0.14227 -1.60806,-0.35256 -3.401665,-0.63704 -1.731757,-0.27831 -3.339814,-0.56282 -4.762326,-0.84733 -1.298819,-0.27833 -2.783178,-0.69888 -4.39124,-1.26789 -1.54621,-0.4886 -2.783178,-1.12564 -3.710904,-1.89874 -0.853508,-0.7793 -1.274078,-1.65754 -1.274078,-2.64093 0,-0.98958 0.210286,-2.04719 0.630854,-3.17283 0.39583,-0.68033 0.828769,-1.36066 1.261708,-1.97915 0.432938,-0.68033 0.804029,-1.29881 1.051423,-1.9173 0.371089,-0.55663 0.618484,-1.11327 0.865878,-1.73175 0.247396,-0.55664 0.494787,-1.11328 0.618484,-1.79361 0.123708,-0.61848 0.247382,-1.23697 0.247382,-1.85545 0,-0.61848 -0.247382,-2.47394 -0.742182,-5.7519 -0.494787,-3.21612 -0.742181,-5.25712 -0.742181,-6.123 0,-2.72133 0.618484,-4.88602 1.97915,-6.43223 1.360667,-1.54621 2.659483,-2.35024 4.02015,-2.35024 h 7.112568 c 0.556638,0 1.422513,-0.30921 2.721328,-1.05143 0.432941,-0.98957 0.804031,-1.7936 1.051423,-2.53578 0.309241,-0.74219 0.432941,-1.29882 0.556634,-1.54621 0.123704,-0.37111 0.24737,-0.74218 0.371112,-1.05142 0.24737,-0.43295 0.556637,-0.92773 0.989575,-1.42252 -0.494786,-0.61848 -0.742182,-1.42251 -0.742182,-2.41209 0,-0.68033 0,-1.29881 0.123704,-1.66991 0,-2.22654 1.051423,-5.38081 3.277969,-9.52465 l 2.164694,-3.89645 c 1.793605,-3.33982 3.154269,-5.81375 4.143844,-8.28769 1.051423,-2.47394 2.164694,-6.18485 3.401661,-11.13272 0.989575,-4.32938 3.339814,-8.658773 7.05072,-12.988165 l 4.638633,-5.566356 c 3.216117,-3.710902 5.31896,-6.803327 6.494083,-9.277262 1.175119,-2.473943 1.793605,-5.56636 1.793605,-8.040299 0,-1.236967 -0.309203,-4.947874 -0.989575,-11.132715 -0.618486,-6.184842 -0.92773,-12.369683 -0.92773,-17.936043 0,-4.329388 0.371111,-7.42181 1.175123,-10.514231 0.804034,-3.092421 2.226546,-6.184842 4.329396,-8.658779 1.855449,-2.473937 4.329384,-4.947874 8.040291,-6.184842 3.710887,-1.236969 8.040279,-1.855453 12.988149,-1.855453 1.85545,0 3.71091,0 5.56636,0.618484 1.85545,0 4.32939,0.618485 7.42181,1.855453 2.47394,1.236969 4.94787,2.473937 6.80333,4.329389 2.47393,1.855453 4.32939,4.947874 6.18484,8.040296 1.23697,3.710905 2.47394,7.421809 3.09242,12.369683 0.61849,3.092421 0.61849,6.184845 1.23697,10.514234 0,3.710906 0.61848,6.184841 0.61848,8.040294 0.61849,1.855454 0.61849,4.329393 1.23697,7.42181 0.61848,2.473938 1.23697,4.947874 2.47394,6.803327 1.23697,2.473939 2.47393,4.947874 4.32939,7.421809 1.85545,3.092421 4.32939,6.184845 6.80333,9.895748 5.56635,6.184845 9.89574,12.988168 12.36968,19.791488 3.09242,6.18485 4.94788,14.22514 4.94788,22.82208 0,4.26754 -0.61849,8.41138 -1.85546,12.43152 1.23697,0 1.85546,0.49479 2.47394,1.36067 0.61848,0.86588 1.23697,2.72133 1.85545,5.62821 l 0.61848,4.57678 c 0.61849,1.36067 1.23697,2.65948 3.09242,3.77276 1.23697,1.11327 2.47394,2.04099 4.3294,2.78318 1.23696,0.61848 3.09242,1.48436 4.32938,2.59763 1.23698,1.23697 1.85546,2.53578 1.85546,3.89645 0,2.10285 -0.61848,3.64906 -1.85546,4.76233 -1.23696,1.23697 -2.47393,2.10285 -4.32938,2.65948 -1.23697,0.61848 -3.71091,1.85545 -7.42182,3.59958 -3.09241,1.83071 -6.18483,4.05107 -9.27726,6.67963 l -6.18484,5.2633 c -2.47394,2.41209 -4.94787,4.14384 -6.80333,5.19527 -1.85545,1.11327 -4.32939,1.6699 -6.80333,1.6699 l -4.32938,-0.49478 c -4.94787,-1.29882 -8.04029,-3.77276 -9.89575,-7.54551 -9.89575,-1.19986 -17.93604,-1.79361 -22.88392,-1.79361"
     id="path4306"
     style="fill:#8bceff;stroke-width:0.618486;fill-opacity:1"
     sodipodi:nodetypes="ccscsccccsccccccscscscccssscscccscccccsscccscccccscccccscscscscscscscccscsssccsccscccsccccsccccccccsssccccscccsccsssccccccscsccccccsccccscscscccccccccscccscsscsccssscsccscccccscccccccscccccsccccccscccccscsssscccccscccccccsscsccssccccccccccccscscccccscccccccccc" />
</svg>
