<?xml version="1.0" encoding="UTF-8" standalone="no"?>
<svg
   width="16"
   height="16"
   viewBox="0 0 16 16"
   version="1.1"
   id="svg1973"
   sodipodi:docname="fork.svg"
   inkscape:version="1.2.2 (b0a8486541, 2022-12-01)"
   xmlns:inkscape="http://www.inkscape.org/namespaces/inkscape"
   xmlns:sodipodi="http://sodipodi.sourceforge.net/DTD/sodipodi-0.dtd"
   xmlns="http://www.w3.org/2000/svg"
   xmlns:svg="http://www.w3.org/2000/svg"
   xmlns:rdf="http://www.w3.org/1999/02/22-rdf-syntax-ns#"
   xmlns:cc="http://creativecommons.org/ns#"
   xmlns:dc="http://purl.org/dc/elements/1.1/">
  <defs
     id="defs1977" />
  <sodipodi:namedview
     id="namedview1975"
     pagecolor="#505050"
     bordercolor="#eeeeee"
     borderopacity="1"
     inkscape:showpageshadow="0"
     inkscape:pageopacity="0"
     inkscape:pagecheckerboard="0"
     inkscape:deskcolor="#505050"
     showgrid="false"
     inkscape:zoom="15.394304"
     inkscape:cx="1.3641409"
     inkscape:cy="16.46713"
     inkscape:window-width="1661"
     inkscape:window-height="1389"
     inkscape:window-x="12"
     inkscape:window-y="39"
     inkscape:window-maximized="1"
     inkscape:current-layer="svg1973" />
  <!-- Generator: sketchtool 52.2 (67145) - http://www.bohemiancoding.com/sketch -->
  <title
     id="title1966">fork</title>
  <desc
     id="desc1968">Created with sketchtool.</desc>
  <g
     id="production"
     stroke="none"
     stroke-width="1"
     fill="none"
     fill-rule="evenodd"
     transform="matrix(0.80537722,0,0,0.80537722,-1.6645266,-1.6645266)"
     style="fill:#e3dbdb">
    <g
       id="fork"
       fill="#000000"
       style="fill:#e3dbdb">
      <path
         d="M 9,7.8292943 V 12 h 3 c 1.656854,0 3,-1.343146 3,-3 V 7.8292943 C 13.834808,7.4174579 13,6.3062188 13,5 c 0,-1.6568542 1.343146,-3 3,-3 1.656854,0 3,1.3431458 3,3 0,1.3062188 -0.834808,2.4174579 -2,2.8292943 V 9 c 0,2.761424 -2.238576,5 -5,5 H 9 v 2.170706 C 10.165192,16.582542 11,17.693781 11,19 11,20.656854 9.6568543,22 8,22 6.3431457,22 5,20.656854 5,19 5,17.693781 5.8348076,16.582542 7,16.170706 V 7.8292943 C 5.8348076,7.4174579 5,6.3062188 5,5 5,3.3431458 6.3431457,2 8,2 9.6568543,2 11,3.3431458 11,5 11,6.3062188 10.165192,7.4174579 9,7.8292943 Z M 8,20 c 0.5522848,0 1,-0.447715 1,-1 0,-0.552285 -0.4477152,-1 -1,-1 -0.5522848,0 -1,0.447715 -1,1 0,0.552285 0.4477152,1 1,1 z M 16,6 c 0.552285,0 1,-0.4477153 1,-1 0,-0.5522848 -0.447715,-1 -1,-1 -0.552285,0 -1,0.4477152 -1,1 0,0.5522847 0.447715,1 1,1 z M 8,6 C 8.5522848,6 9,5.5522847 9,5 9,4.4477152 8.5522848,4 8,4 7.4477152,4 7,4.4477152 7,5 7,5.5522847 7.4477152,6 8,6 Z"
         id="Shape"
         style="fill:#e3dbdb" />
    </g>
  </g>
  <metadata
     id="metadata2096">
    <rdf:RDF>
      <cc:Work
         rdf:about="">
        <dc:title>fork</dc:title>
      </cc:Work>
    </rdf:RDF>
  </metadata>
</svg>
