<?xml version="1.0" encoding="UTF-8" standalone="no"?>
<svg
   width="160"
   height="160"
   version="1.1"
   id="svg3763"
   sodipodi:docname="gentoo.svg"
   inkscape:version="1.2 (dc2aedaf03, 2022-05-15)"
   xmlns:inkscape="http://www.inkscape.org/namespaces/inkscape"
   xmlns:sodipodi="http://sodipodi.sourceforge.net/DTD/sodipodi-0.dtd"
   xmlns:xlink="http://www.w3.org/1999/xlink"
   xmlns="http://www.w3.org/2000/svg"
   xmlns:svg="http://www.w3.org/2000/svg"
   xmlns:rdf="http://www.w3.org/1999/02/22-rdf-syntax-ns#"
   xmlns:cc="http://creativecommons.org/ns#"
   xmlns:dc="http://purl.org/dc/elements/1.1/">
  <sodipodi:namedview
     id="namedview3765"
     pagecolor="#505050"
     bordercolor="#eeeeee"
     borderopacity="1"
     inkscape:showpageshadow="0"
     inkscape:pageopacity="0"
     inkscape:pagecheckerboard="0"
     inkscape:deskcolor="#505050"
     showgrid="false"
     inkscape:zoom="2.0277297"
     inkscape:cx="246.82777"
     inkscape:cy="260.14316"
     inkscape:window-width="2536"
     inkscape:window-height="1416"
     inkscape:window-x="10"
     inkscape:window-y="10"
     inkscape:window-maximized="1"
     inkscape:current-layer="svg3763" />
  <title
     id="title3692">Gentoo Logo Vector</title>
  <defs
     id="defs3737">
    <linearGradient
       id="vlpa">
      <stop
         style="stop-opacity:.4592"
         offset="0"
         id="stop3694" />
      <stop
         style="stop-color:#9999e6"
         offset="1"
         id="stop3696" />
    </linearGradient>
    <radialGradient
       id="vlpd"
       cx="240.2"
       cy="350.79999"
       r="303.29999"
       gradientTransform="matrix(0.691,1.012,-0.8154,0.557,374.4,-116.5)"
       gradientUnits="userSpaceOnUse">
      <stop
         style="stop-color:#fff"
         offset="0"
         id="stop3699" />
      <stop
         style="stop-color:#fff"
         offset=".4866"
         id="stop3701" />
      <stop
         style="stop-color:#d9d9f6"
         offset=".5931"
         id="stop3703" />
      <stop
         style="stop-color:#adadeb"
         offset="1"
         id="stop3705" />
    </radialGradient>
    <radialGradient
       id="vlpc"
       cx="402.89999"
       cy="273.5"
       r="77.790001"
       gradientTransform="scale(1.095,0.9133)"
       gradientUnits="userSpaceOnUse">
      <stop
         style="stop-color:#fff"
         offset="0"
         id="stop3708" />
      <stop
         style="stop-color:#fff"
         offset=".3036"
         id="stop3710" />
      <stop
         style="stop-color:#e6e6f9"
         offset=".6071"
         id="stop3712" />
      <stop
         style="stop-color:#9999e6"
         offset="1"
         id="stop3714" />
    </radialGradient>
    <linearGradient
       id="vlph"
       x1="192.60001"
       x2="234.89999"
       y1="404.70001"
       y2="331.89999"
       gradientTransform="scale(1.083,0.9232)"
       gradientUnits="userSpaceOnUse"
       xlink:href="#vlpa" />
    <linearGradient
       id="vlpg"
       x1="188.60001"
       x2="450.39999"
       y1="785.09998"
       y2="519.5"
       gradientTransform="scale(1.348,0.7417)"
       gradientUnits="userSpaceOnUse"
       xlink:href="#vlpa" />
    <linearGradient
       id="vlpf"
       x1="508.20001"
       x2="271"
       y1="428.60001"
       y2="659.79999"
       gradientTransform="scale(1.201,0.8329)"
       gradientUnits="userSpaceOnUse">
      <stop
         style="stop-color:#fff"
         offset="0"
         id="stop3719" />
      <stop
         style="stop-color:#fff;stop-opacity:0"
         offset="1"
         id="stop3721" />
    </linearGradient>
    <filter
       id="vlpi"
       x="-0.010179231"
       y="-0.014611368"
       width="1.0203585"
       height="1.0292227">
      <feGaussianBlur
         stdDeviation="1.3094535"
         id="feGaussianBlur3724" />
    </filter>
    <linearGradient
       id="vlpe"
       x1="354.20001"
       x2="314.39999"
       y1="83.330002"
       y2="322.29999"
       gradientUnits="userSpaceOnUse">
      <stop
         style="stop-color:#7b7bdf"
         offset="0"
         id="stop3727" />
      <stop
         style="stop-color:#a6a6e9"
         offset="1"
         id="stop3729" />
    </linearGradient>
    <radialGradient
       id="vlpb"
       cx="364.29999"
       cy="341"
       r="35.68"
       gradientTransform="matrix(1.504,-0.05645,0.04112,1.095,-156.9,-46.75)"
       gradientUnits="userSpaceOnUse">
      <stop
         offset="0"
         id="stop3732" />
      <stop
         style="stop-color:#9999e6"
         offset="1"
         id="stop3734" />
    </radialGradient>
  </defs>
  <metadata
     id="metadata3739">
    <rdf:RDF>
      <cc:Work
         rdf:about="">
        <dc:format>image/svg+xml</dc:format>
        <dc:type
           rdf:resource="http://purl.org/dc/dcmitype/StillImage" />
        <dc:title>Gentoo Logo Vector</dc:title>
        <dc:creator>
          <cc:Agent>
            <dc:title>Matteo 'Peach' Pescarin</dc:title>
          </cc:Agent>
        </dc:creator>
        <dc:description />
        <cc:license
           rdf:resource="http://creativecommons.org/licenses/by-sa/4.0/" />
        <dc:contributor>
          <cc:Agent>
            <dc:title>Daniel Robbins as creator of the original logo</dc:title>
          </cc:Agent>
        </dc:contributor>
      </cc:Work>
      <cc:License
         rdf:about="http://creativecommons.org/licenses/by-sa/4.0/">
        <cc:permits
           rdf:resource="http://creativecommons.org/ns#Reproduction" />
        <cc:permits
           rdf:resource="http://creativecommons.org/ns#Distribution" />
        <cc:requires
           rdf:resource="http://creativecommons.org/ns#Notice" />
        <cc:requires
           rdf:resource="http://creativecommons.org/ns#Attribution" />
        <cc:permits
           rdf:resource="http://creativecommons.org/ns#DerivativeWorks" />
        <cc:requires
           rdf:resource="http://creativecommons.org/ns#ShareAlike" />
      </cc:License>
    </rdf:RDF>
  </metadata>
  <g
     transform="matrix(0.3204716,0,0,0.3204716,-47.740336,-47.755984)"
     id="g3761">
    <g
       transform="translate(-20.81,8.922)"
       id="g3759">
      <path
         d="m 196.3,489.8 c 0,0 -18.67,23.07 -12.08,61.51 6.59,38.44 26.36,57.66 26.36,57.66 0,0 27.46,28.01 65.35,30.2 37.89,2.197 76.89,-15.38 76.89,-15.38 0,0 67,-30.75 101,-51.07 34.05,-20.32 81.28,-52.17 120.8,-87.32 39.54,-35.15 62.06,-67 62.06,-67 0,0 18.12,-26.91 19.22,-44.48 1.098,-17.57 -6.041,-36.8 -17.57,-57.66 -11.53,-20.87 -48.33,-68.65 -96.66,-105.4 -48.33,-36.8 -107.6,-66.45 -159.3,-70.3 -51.62,-3.844 -88.97,17.02 -110.4,31.85 -21.42,14.83 -61.51,49.98 -74.14,87.87 -12.69,38.06 -7.139,65.9 23.61,91.16 30.75,25.26 72.49,45.03 72.49,45.03 l -97.75,93.36 z"
         style="fill-opacity:0.3333;fill-rule:evenodd"
         id="path3741" />
      <path
         d="m 294.7,165 c -40.55,22.33 -70.77,56.56 -80.79,77.7 -20.59,43.39 -18.71,64.44 3.844,91.71 17.12,20.7 79.63,53.27 79.63,53.27 0,0 -53.82,47.23 -74.69,67 -20.87,19.77 -37.34,48.33 -26.36,92.26 10.98,43.93 45.03,59.31 45.03,59.31 0,0 44.48,26.36 110.4,-2.197 65.9,-28.56 114.8,-59.31 114.8,-59.31 0,0 97.2,-66.45 123.6,-97.2 26.36,-30.75 62.06,-60.96 45.58,-110.4 -16.48,-49.43 -90.07,-115.3 -90.07,-115.3 0,0 -73.33,-56.1 -126.2,-69.85 -57.24,-14.89 -105.6,2.44 -124.8,13.01 z"
         style="fill:url(#vlpe);fill-rule:evenodd;stroke:#000000;stroke-width:2.485;stroke-linecap:round;stroke-linejoin:round"
         id="path3743" />
      <path
         d="m 339.1,358.5 c 0,0 -20.87,24.71 -42.84,43.93 -21.97,19.22 -30.45,27.98 -53.16,51.18 -13.18,13.46 -24.44,27.47 -27.58,53.73 -2.285,19.14 2.289,37.47 15.01,48.23 12.721,10.76 30.22,20.97 65.18,14.27 40.72,-7.807 71.54,-24.71 71.54,-24.71 0,0 92.89,-47 142.9,-84.89 49.98,-37.89 100.6,-94.62 100.6,-94.62 0,0 17.53,-11.52 -1.565,-46.21 -19.54,-35.5 -76.95,-85.97 -96.72,-100.3 -19.77,-14.28 -82.76,-65.52 -138.2,-63.87 -55.44,1.65 -91.71,28.56 -91.71,28.56 -11.53,9.885 -51.62,39.27 -60.96,64.25 -9.405,25.17 -4.943,45.58 13.18,58.76 18.12,13.18 75.79,37.34 75.79,37.34 z"
         style="fill:url(#vlpd);fill-rule:evenodd"
         id="path3745" />
      <path
         d="m 370.4,305.8 c 0,0 31.3,26.91 59.86,24.71 28.56,-2.197 30.75,-19.77 30.75,-19.77 0,0 6.59,-23.07 -10.43,-41.74 -17.02,-18.67 -41.74,-32.95 -62.06,-32.4 -20.32,0.5492 -39.54,20.32 -38.99,36.25 0.5492,15.93 20.87,32.95 20.87,32.95 z"
         style="fill:url(#vlpc);fill-opacity:0.75;fill-rule:evenodd"
         id="path3747" />
      <path
         d="m 397.3,256.4 c -18.12,0.2746 -26.37,8.441 -24.71,23.07 1.648,14.55 33.75,33.26 48.33,30.75 15.11,-2.597 19.07,-8.77 18.12,-20.87 -0.9005,-11.55 -24.16,-33.23 -41.74,-32.95 z"
         style="fill:url(#vlpb);fill-opacity:0.75;fill-rule:evenodd"
         id="path3749" />
      <path
         d="m 207.8,281.1 c 0,0 3.295,17.57 25.81,33.5 22.52,15.93 64.23,31.94 86.14,44.64 4.199,2.434 4.91,6.049 -2.972,13.06 -7.554,6.719 -12.48,10.97 -12.48,10.97 0,0 -63.09,-34.93 -79.84,-50.68 -27.08,-25.46 -16.65,-51.49 -16.65,-51.49 z"
         style="fill:url(#vlph);fill-opacity:0.75;fill-rule:evenodd"
         id="path3751" />
      <path
         d="m 202.3,543.3 c 0,0 20.59,37.55 69.23,37.66 39.23,0.0847 76.56,-11.63 135.1,-41.19 82.89,-41.85 146.6,-92.16 178.4,-120.2 31.85,-28.01 49.18,-50.48 49.18,-50.48 0,0 -18.38,42.7 -44.74,67.96 -26.36,25.26 -91.71,82.93 -154.9,117.5 -63.16,34.6 -106.2,58.4 -150.3,56.23 -41.88,-2.054 -61.68,-26.58 -70.47,-38.11 -8.787,-11.53 -11.57,-29.42 -11.57,-29.42 z"
         style="fill:url(#vlpg);fill-opacity:0.75;fill-rule:evenodd"
         id="path3753" />
      <path
         d="m 315.5,562.8 c 0,0 38.44,-8.238 111.5,-48.33 73.04,-40.09 103.5,-66.85 125.4,-85.02 21.9,-18.17 54.25,-45.06 64.69,-57.69 10.43,-12.63 7.496,-21.39 3.048,-23.77 -3.423,-1.833 -13.12,5.869 -18.6,11.93 -5.48,6.061 -46.6,44.17 -69.66,63.94 -23.06,19.77 -87.87,71.39 -126.9,93.91 -38.99,22.52 -89.52,45.03 -89.52,45.03 z"
         style="fill:url(#vlpf);fill-rule:evenodd;filter:url(#vlpi)"
         id="path3755" />
      <path
         transform="translate(172.8,130)"
         d="m 227.8,167.6 c -4.822,0 -9.519,0.6888 -12.28,1.188 10.74,7.478 24.44,12.75 32.62,11.34 3.176,-0.5457 5.845,-1.242 8.094,-2.125 -5.276,-3.068 -14.9,-8.321 -21.19,-9.719 -2.25,-0.5 -4.766,-0.6875 -7.25,-0.6875 z"
         style="color:#000000"
         id="path3757" />
    </g>
  </g>
</svg>
