<?xml version="1.0" encoding="UTF-8" standalone="no"?>
<svg
   fill="#000000"
   viewBox="0 0 80 80"
   width="160"
   height="160"
   version="1.1"
   id="svg401"
   sodipodi:docname="github.svg"
   inkscape:version="1.2 (dc2aedaf03, 2022-05-15)"
   xmlns:inkscape="http://www.inkscape.org/namespaces/inkscape"
   xmlns:sodipodi="http://sodipodi.sourceforge.net/DTD/sodipodi-0.dtd"
   xmlns="http://www.w3.org/2000/svg"
   xmlns:svg="http://www.w3.org/2000/svg">
  <defs
     id="defs405" />
  <sodipodi:namedview
     id="namedview403"
     pagecolor="#505050"
     bordercolor="#eeeeee"
     borderopacity="1"
     inkscape:showpageshadow="0"
     inkscape:pageopacity="0"
     inkscape:pagecheckerboard="0"
     inkscape:deskcolor="#505050"
     showgrid="false"
     inkscape:zoom="5.3489583"
     inkscape:cx="90.67186"
     inkscape:cy="75.061344"
     inkscape:window-width="1913"
     inkscape:window-height="1416"
     inkscape:window-x="10"
     inkscape:window-y="10"
     inkscape:window-maximized="1"
     inkscape:current-layer="svg401" />
  <path
     d="M 35.509867,1.4210424 C 17.072514,3.4251024 2.2424698,18.255147 0.23840982,36.291688 -1.7656503,55.129852 9.0562738,71.963957 25.489567,78.376949 c 1.202436,0.400812 2.404872,-0.400812 2.404872,-2.00406 v -6.412992 c 0,0 -1.603248,0.400812 -3.607308,0.400812 -5.611368,0 -8.016241,-4.809744 -8.417053,-7.615428 -0.400812,-1.603248 -1.202436,-2.805684 -2.404872,-4.00812 -1.202436,-0.400812 -1.603248,-0.400812 -1.603248,-0.801624 0,-0.801624 1.202436,-0.801624 1.603248,-0.801624 2.404872,0 4.408932,2.805684 5.210557,4.00812 2.00406,3.206496 4.408932,4.00812 5.611368,4.00812 1.603248,0 2.805684,-0.400812 3.607308,-0.801624 0.400812,-2.805684 1.603248,-5.611368 4.00812,-7.214616 -9.218676,-2.004061 -16.032481,-7.214617 -16.032481,-16.032481 0,-4.408932 2.00406,-8.817864 4.809745,-12.02436 -0.400812,-0.801624 -0.801624,-2.805684 -0.801624,-5.611368 0,-1.603249 0,-4.008121 1.202436,-6.412993 0,0 5.611368,0 11.222736,5.210556 2.00406,-0.801624 4.809744,-1.202436 7.615428,-1.202436 2.805684,0 5.611368,0.400812 8.01624,1.202436 5.210557,-5.210556 11.222737,-5.210556 11.222737,-5.210556 0.801624,2.404872 0.801624,4.809744 0.801624,6.412993 0,3.206496 -0.400812,4.809744 -0.801624,5.611368 2.805684,3.206496 4.809744,7.214616 4.809744,12.02436 0,8.817864 -6.813804,14.02842 -16.032481,16.032481 2.404872,2.00406 4.008121,5.611368 4.008121,9.218676 v 10.421112 c 0,1.202436 1.202436,2.404872 2.805684,2.00406 C 69.578888,72.765581 80,58.336349 80,41.502244 80,17.453523 59.558588,-1.3846417 35.509867,1.4210424 Z"
     id="path399"
     style="stroke-width:4.00812;fill:#ffffff;fill-opacity:1" />
</svg>
