<?xml version="1.0" encoding="UTF-8" standalone="no"?>
<!-- Created with Inkscape (http://www.inkscape.org/) -->

<svg
   version="1.1"
   id="svg75"
   width="200"
   height="200"
   viewBox="0 0 199.99999 200"
   sodipodi:docname="hikari.svg"
   inkscape:version="1.2.2 (b0a8486541, 2022-12-01)"
   xml:space="preserve"
   xmlns:inkscape="http://www.inkscape.org/namespaces/inkscape"
   xmlns:sodipodi="http://sodipodi.sourceforge.net/DTD/sodipodi-0.dtd"
   xmlns="http://www.w3.org/2000/svg"
   xmlns:svg="http://www.w3.org/2000/svg"><defs
     id="defs79"><inkscape:path-effect
       effect="taper_stroke"
       id="path-effect2747"
       is_visible="true"
       lpeversion="1"
       stroke_width="16"
       attach_start="0"
       end_offset="1.6"
       start_smoothing="0.5"
       end_smoothing="0.5"
       jointype="extrapolated"
       start_shape="center"
       end_shape="center"
       miter_limit="100" /><inkscape:path-effect
       effect="taper_stroke"
       id="path-effect2652"
       is_visible="true"
       lpeversion="1"
       stroke_width="16"
       attach_start="0.2"
       end_offset="4.7923557"
       start_smoothing="0.5"
       end_smoothing="0.5"
       jointype="extrapolated"
       start_shape="center"
       end_shape="center"
       miter_limit="100" /><inkscape:path-effect
       effect="taper_stroke"
       id="path-effect1281"
       is_visible="true"
       lpeversion="1"
       stroke_width="16"
       attach_start="0"
       end_offset="0.99999"
       start_smoothing="0"
       end_smoothing="0"
       jointype="extrapolated"
       start_shape="center"
       end_shape="right"
       miter_limit="100" /><inkscape:path-effect
       effect="taper_stroke"
       id="path-effect2118"
       is_visible="true"
       lpeversion="1"
       stroke_width="16"
       attach_start="0"
       end_offset="2.8"
       start_smoothing="0.5"
       end_smoothing="0.5"
       jointype="extrapolated"
       start_shape="center"
       end_shape="center"
       miter_limit="100" /><inkscape:path-effect
       effect="taper_stroke"
       id="path-effect2037"
       is_visible="true"
       lpeversion="1"
       stroke_width="24.8"
       attach_start="0.2"
       end_offset="1.5251252"
       start_smoothing="0.5"
       end_smoothing="0.5"
       jointype="extrapolated"
       start_shape="center"
       end_shape="center"
       miter_limit="100" /><inkscape:path-effect
       effect="taper_stroke"
       id="path-effect1760"
       is_visible="true"
       lpeversion="1"
       stroke_width="4.3"
       attach_start="0.2"
       end_offset="0.2"
       start_smoothing="0.5"
       end_smoothing="0.5"
       jointype="extrapolated"
       start_shape="center"
       end_shape="center"
       miter_limit="100" /><inkscape:path-effect
       effect="taper_stroke"
       id="path-effect425"
       is_visible="true"
       lpeversion="1"
       stroke_width="2.7"
       attach_start="0.2"
       end_offset="0.2"
       start_smoothing="0.5"
       end_smoothing="0.5"
       jointype="miter"
       start_shape="center"
       end_shape="center"
       miter_limit="100" /><inkscape:path-effect
       effect="taper_stroke"
       id="path-effect1155"
       is_visible="true"
       lpeversion="1"
       stroke_width="4.1"
       attach_start="1.59208"
       end_offset="1.7073992"
       start_smoothing="0.5"
       end_smoothing="0.5"
       jointype="extrapolated"
       start_shape="center"
       end_shape="center"
       miter_limit="100" /><inkscape:path-effect
       effect="taper_stroke"
       id="path-effect500"
       is_visible="true"
       lpeversion="1"
       stroke_width="1.6870044"
       attach_start="0.2"
       end_offset="0.2"
       start_smoothing="0.5"
       end_smoothing="0.5"
       jointype="extrapolated"
       start_shape="center"
       end_shape="center"
       miter_limit="100" /><inkscape:path-effect
       effect="taper_stroke"
       id="path-effect498"
       is_visible="true"
       lpeversion="1"
       stroke_width="1.6870044"
       attach_start="0.2"
       end_offset="0.2"
       start_smoothing="0.5"
       end_smoothing="0.5"
       jointype="extrapolated"
       start_shape="center"
       end_shape="center"
       miter_limit="100" /><inkscape:path-effect
       effect="taper_stroke"
       id="path-effect496"
       is_visible="true"
       lpeversion="1"
       stroke_width="3.3740088"
       attach_start="0.2"
       end_offset="0.2"
       start_smoothing="0.5"
       end_smoothing="0.5"
       jointype="extrapolated"
       start_shape="center"
       end_shape="center"
       miter_limit="100" /><inkscape:path-effect
       effect="taper_stroke"
       id="path-effect494"
       is_visible="true"
       lpeversion="1"
       stroke_width="1.6870044"
       attach_start="0.2"
       end_offset="0.2"
       start_smoothing="0.5"
       end_smoothing="0.5"
       jointype="extrapolated"
       start_shape="center"
       end_shape="center"
       miter_limit="100" /><inkscape:path-effect
       effect="taper_stroke"
       id="path-effect492"
       is_visible="true"
       lpeversion="1"
       stroke_width="3.3740088"
       attach_start="0.2"
       end_offset="0.2"
       start_smoothing="0.5"
       end_smoothing="0.5"
       jointype="extrapolated"
       start_shape="center"
       end_shape="center"
       miter_limit="100" /><inkscape:path-effect
       effect="taper_stroke"
       id="path-effect490"
       is_visible="true"
       lpeversion="1"
       stroke_width="1.6870044"
       attach_start="0.2"
       end_offset="0.2"
       start_smoothing="0.5"
       end_smoothing="0.5"
       jointype="extrapolated"
       start_shape="center"
       end_shape="center"
       miter_limit="100" /><inkscape:path-effect
       effect="taper_stroke"
       id="path-effect488"
       is_visible="true"
       lpeversion="1"
       stroke_width="12"
       attach_start="0.068415886"
       end_offset="0.6"
       start_smoothing="0.5"
       end_smoothing="0.5"
       jointype="extrapolated"
       start_shape="center"
       end_shape="center"
       miter_limit="100" /><inkscape:path-effect
       effect="taper_stroke"
       id="path-effect443"
       is_visible="true"
       lpeversion="1"
       stroke_width="16"
       attach_start="0.99999"
       end_offset="0.99999"
       start_smoothing="0.5"
       end_smoothing="0.5"
       jointype="extrapolated"
       start_shape="center"
       end_shape="center"
       miter_limit="102.8" /><inkscape:path-effect
       effect="taper_stroke"
       id="path-effect441"
       is_visible="true"
       lpeversion="1"
       stroke_width="16"
       attach_start="0.2"
       end_offset="2.8"
       start_smoothing="0.5"
       end_smoothing="0.5"
       jointype="extrapolated"
       start_shape="center"
       end_shape="center"
       miter_limit="100" /><inkscape:path-effect
       effect="taper_stroke"
       id="path-effect439"
       is_visible="true"
       lpeversion="1"
       stroke_width="3.3740088"
       attach_start="0"
       end_offset="0.99999"
       start_smoothing="0.5"
       end_smoothing="0.5"
       jointype="extrapolated"
       start_shape="center"
       end_shape="center"
       miter_limit="100" /><inkscape:path-effect
       effect="taper_stroke"
       id="path-effect443-3"
       is_visible="true"
       lpeversion="1"
       stroke_width="3.3740088"
       attach_start="0.69779673"
       end_offset="0.99999"
       start_smoothing="0.5"
       end_smoothing="0.5"
       jointype="extrapolated"
       start_shape="center"
       end_shape="center"
       miter_limit="100" /><inkscape:path-effect
       effect="taper_stroke"
       id="path-effect439-6"
       is_visible="true"
       lpeversion="1"
       stroke_width="3.3740088"
       attach_start="0"
       end_offset="0.99999"
       start_smoothing="0.5"
       end_smoothing="0.5"
       jointype="extrapolated"
       start_shape="center"
       end_shape="center"
       miter_limit="100" /><inkscape:path-effect
       effect="taper_stroke"
       id="path-effect441-7"
       is_visible="true"
       lpeversion="1"
       stroke_width="3.3740088"
       attach_start="0.2"
       end_offset="1.2890108"
       start_smoothing="0.5"
       end_smoothing="0.5"
       jointype="extrapolated"
       start_shape="center"
       end_shape="center"
       miter_limit="100" /><inkscape:path-effect
       effect="taper_stroke"
       id="path-effect488-5"
       is_visible="true"
       lpeversion="1"
       stroke_width="5.0610132"
       attach_start="0.2"
       end_offset="0.2"
       start_smoothing="0.5"
       end_smoothing="0.5"
       jointype="extrapolated"
       start_shape="center"
       end_shape="center"
       miter_limit="100" /><inkscape:path-effect
       effect="taper_stroke"
       id="path-effect490-3"
       is_visible="true"
       lpeversion="1"
       stroke_width="3"
       attach_start="0.5"
       end_offset="0.5"
       start_smoothing="0.5"
       end_smoothing="0.5"
       jointype="extrapolated"
       start_shape="center"
       end_shape="center"
       miter_limit="100" /><inkscape:path-effect
       effect="taper_stroke"
       id="path-effect494-5"
       is_visible="true"
       lpeversion="1"
       stroke_width="3"
       attach_start="0.5"
       end_offset="0.5"
       start_smoothing="0.5"
       end_smoothing="0.5"
       jointype="extrapolated"
       start_shape="center"
       end_shape="center"
       miter_limit="100" /><inkscape:path-effect
       effect="taper_stroke"
       id="path-effect498-6"
       is_visible="true"
       lpeversion="1"
       stroke_width="3"
       attach_start="0.5"
       end_offset="0.5"
       start_smoothing="0.5"
       end_smoothing="0.5"
       jointype="extrapolated"
       start_shape="center"
       end_shape="center"
       miter_limit="100" /><inkscape:path-effect
       effect="taper_stroke"
       id="path-effect500-2"
       is_visible="true"
       lpeversion="1"
       stroke_width="3"
       attach_start="0.6"
       end_offset="0.2"
       start_smoothing="0.5"
       end_smoothing="0.5"
       jointype="extrapolated"
       start_shape="center"
       end_shape="center"
       miter_limit="100" /><inkscape:path-effect
       effect="taper_stroke"
       id="path-effect492-9"
       is_visible="true"
       lpeversion="1"
       stroke_width="12"
       attach_start="0.8"
       end_offset="0.2"
       start_smoothing="0"
       end_smoothing="0.5"
       jointype="extrapolated"
       start_shape="center"
       end_shape="center"
       miter_limit="100" /><inkscape:path-effect
       effect="taper_stroke"
       id="path-effect496-1"
       is_visible="true"
       lpeversion="1"
       stroke_width="12"
       attach_start="0.8"
       end_offset="0.2"
       start_smoothing="0.5"
       end_smoothing="0.5"
       jointype="extrapolated"
       start_shape="center"
       end_shape="center"
       miter_limit="100" /><inkscape:path-effect
       effect="taper_stroke"
       id="path-effect441-3"
       is_visible="true"
       lpeversion="1"
       stroke_width="16"
       attach_start="0.2"
       end_offset="2.8"
       start_smoothing="0.5"
       end_smoothing="0.5"
       jointype="extrapolated"
       start_shape="center"
       end_shape="center"
       miter_limit="100" /><inkscape:path-effect
       effect="taper_stroke"
       id="path-effect492-9-7"
       is_visible="true"
       lpeversion="1"
       stroke_width="12"
       attach_start="0.8"
       end_offset="0.2"
       start_smoothing="0"
       end_smoothing="0.5"
       jointype="extrapolated"
       start_shape="center"
       end_shape="center"
       miter_limit="100" /></defs><sodipodi:namedview
     id="namedview77"
     pagecolor="#505050"
     bordercolor="#eeeeee"
     borderopacity="1"
     inkscape:showpageshadow="0"
     inkscape:pageopacity="0"
     inkscape:pagecheckerboard="0"
     inkscape:deskcolor="#505050"
     showgrid="false"
     inkscape:zoom="2.0000001"
     inkscape:cx="45.249999"
     inkscape:cy="169.75"
     inkscape:window-width="1404"
     inkscape:window-height="1389"
     inkscape:window-x="12"
     inkscape:window-y="39"
     inkscape:window-maximized="1"
     inkscape:current-layer="g3333" /><g
     inkscape:groupmode="layer"
     inkscape:label="Image"
     id="g81"><g
       id="g460"
       style="stroke-width:12;stroke-dasharray:none;fill:none;stroke:#f01439;stroke-opacity:1" /><g
       id="g1038"
       transform="translate(-3.2611991,-3.2399405)"><g
         id="g1375"><g
           id="g1440"
           transform="translate(-6.8718774)"><g
             id="g3333"
             style="fill:#cc1947;fill-opacity:1"><g
               id="g6267"
               transform="matrix(1.0591744,0,0,1.0218258,-6.4386692,-2.2532932)"><path
                 style="fill:#f9234f;fill-opacity:1;fill-rule:nonzero;stroke:none;stroke-width:19.3612;stroke-linecap:butt;stroke-linejoin:bevel;stroke-miterlimit:2.4;stroke-dasharray:none;stroke-opacity:1;paint-order:markers stroke fill;stop-color:#000000"
                 d="m 138.51518,37.607999 c 0,0 -10.85566,40.14643 -10.85566,40.14643 0,0 21.86654,-35.375634 21.86654,-35.375634 2.04514,-4.720129 -1.41516,-11.825656 -1.41516,-11.825656 0,0 -7.55058,2.334731 -9.59572,7.05486 z"
                 id="path5263-2"
                 sodipodi:nodetypes="cc"
                 inkscape:original-d="M 127.65952,77.754429 148.1109,30.553139"
                 inkscape:path-effect="#path-effect492-9" /><path
                 style="fill:#f9234f;fill-opacity:1;fill-rule:nonzero;stroke:none;stroke-width:19.3612;stroke-linecap:butt;stroke-linejoin:bevel;stroke-miterlimit:2.4;stroke-dasharray:none;stroke-opacity:1;paint-order:markers stroke fill;stop-color:#000000"
                 d="m 60.761581,42.378795 c 0,0 21.866545,35.375634 21.866545,35.375634 0,0 -10.855663,-40.14643 -10.855663,-40.14643 -2.045138,-4.720129 -9.595717,-7.05486 -9.595717,-7.05486 0,0 -3.460303,7.105527 -1.415165,11.825656 z"
                 id="path5263-2-0"
                 sodipodi:nodetypes="cc"
                 inkscape:original-d="M 82.628126,77.754429 62.176746,30.553139"
                 inkscape:path-effect="#path-effect492-9-7" /><path
                 style="fill:#f9234f;fill-opacity:1;fill-rule:nonzero;stroke:none;stroke-width:17.2342;stroke-linecap:butt;stroke-linejoin:bevel;stroke-miterlimit:2.4;stroke-dasharray:none;stroke-opacity:1;paint-order:markers stroke fill;stop-color:#000000"
                 d="m 99.22468,93.023162 c 0,3.155026 6,6.310051 6,6.310051 0,0 6,-3.155025 6,-6.310051 V 62.440899 c 0,-27.669235 -6,-55.3384702 -6,-55.3384702 0,0 -6,27.6692352 -6,55.3384702 z"
                 id="path4496-2"
                 sodipodi:nodetypes="cc"
                 inkscape:path-effect="#path-effect488"
                 inkscape:original-d="M 105.22468,99.333213 V 7.1024288" /><g
                 id="g3198"
                 style="fill:#f9234f;fill-opacity:1"
                 transform="translate(-7.031828)"><path
                   style="fill:#f9234f;fill-opacity:1;fill-rule:nonzero;stroke:none;stroke-width:17.2342;stroke-linecap:butt;stroke-linejoin:bevel;stroke-miterlimit:2.4;stroke-dasharray:none;stroke-opacity:1;paint-order:markers stroke fill;stop-color:#000000"
                   d="m 110.49147,89.860673 c -8.21363,-0.423613 -16.246144,1.054069 -23.502819,3.957294 -7.559048,3.043754 -13.970332,7.354183 -19.254344,11.959893 -9.599427,8.38832 -15.978832,17.71105 -19.846758,24.15333 -3.961139,6.59753 -5.78078,10.78625 -5.78078,10.78625 0,0 3.24957,-3.22621 8.880801,-8.22238 5.457211,-4.84177 13.787235,-11.8041 23.506283,-17.31297 5.335132,-3.0283 11.198809,-5.72554 17.301803,-7.37963 5.790348,-1.58287 11.872544,-2.29588 17.845324,-1.96441 2.5e-4,2e-5 5e-4,3e-5 7.5e-4,4e-5 l -0.94617,-0.10713 c 16.85092,2.93239 35.94746,5.64216 54.38893,-0.60025 l -0.50579,0.15279 c 1.2e-4,-3e-5 2.4e-4,-7e-5 3.7e-4,-1e-4 9.62182,-2.49334 17.47938,-8.108387 22.64038,-13.688829 5.02432,-5.432647 6.85557,-10.001325 6.85557,-10.001325 0,0 -4.63777,1.638741 -11.01218,3.194466 -6.40165,1.562374 -14.62103,2.841626 -22.60227,5.034837 -1.1e-4,2.8e-5 -2.2e-4,5.7e-5 -0.26512,0.07062 a 50.701379,50.701379 0 0 1 -0.241,0.08226 c -14.47341,4.899231 -30.00803,2.865105 -46.51581,-0.0076 a 638.77509,638.77509 0 0 1 -0.46843,-0.0817 z"
                   id="path425"
                   inkscape:original-d="m 42.106769,140.71744 c 15.86305,-21.92581 38.837246,-44.418745 67.960331,-42.86803 16.67935,2.90253 33.99493,5.27448 50.45237,-0.296343 11.52315,-3.069526 22.5825,-7.940055 31.55555,-15.959821"
                   inkscape:path-effect="#path-effect443" /><path
                   style="fill:#f9234f;fill-opacity:1;fill-rule:nonzero;stroke:none;stroke-width:17.2342;stroke-linecap:butt;stroke-linejoin:bevel;stroke-miterlimit:2.4;stroke-dasharray:none;stroke-opacity:1;paint-order:markers stroke fill;stop-color:#000000"
                   d="m 93.414466,101.91007 c -0.02166,-0.19412 -7.987406,0.56437 -7.987406,0.56437 0,0 -7.92828,1.08114 -7.91392,1.20984 0.0426,0.38181 0.0823,0.76396 0.119092,1.14637 1.451423,13.78919 -1.614566,28.15244 -6.077339,41.0584 -5.333338,15.2999 -14.535795,32.68713 -18.785596,40.99841 -4.315673,7.84524 -7.065855,12.48999 -7.065855,12.48999 0,0 3.977171,-3.62396 10.159177,-10.32979 6.555573,-7.54387 18.596118,-21.63806 27.17426,-38.16198 6.979019,-13.38266 12.011,-29.87093 10.522789,-47.54405 -0.04361,-0.47763 -0.09201,-0.95485 -0.145202,-1.43156 z"
                   id="path2951-3-6"
                   inkscape:original-d="m 85.42706,102.47444 c 0.06248,0.53805 0.118744,1.07529 0.16889,1.6117 2.896566,30.9819 -14.603406,59.19422 -31.279992,83.88142 -2.788808,3.86438 -5.6754,7.65731 -8.612516,11.40989"
                   inkscape:path-effect="#path-effect441" /><path
                   style="fill:#f9234f;fill-opacity:1;fill-rule:nonzero;stroke:none;stroke-width:16;stroke-linejoin:bevel;stroke-miterlimit:2.4;stroke-opacity:1;paint-order:markers stroke fill;stop-color:#000000"
                   d="m 134.03911,97.929511 c -9.59616,19.379119 -14.4436,34.487969 -14.4436,34.487969 -2.41211,6.84739 -4.46986,13.90322 -5.85662,21.18813 -1.24977,6.17636 -1.985,12.88935 -1.06603,19.88361 0.33257,2.77017 1.18839,5.78121 2.78358,8.7591 1.5026,2.76596 3.85275,5.07951 6.82712,6.64666 3.50332,1.61103 6.87438,1.98892 9.75744,1.64179 4.21392,-0.43359 7.8646,-1.67388 10.95661,-3.07563 10.5073,-4.61196 18.74331,-9.32361 25.40727,-15.39532 4.51647,-3.95857 7.29415,-8.25176 8.12589,-12.56229 0.62077,-3.59152 -0.47028,-6.35324 -1.51263,-7.98653 -1.52612,-1.70282 -2.31272,-2.55246 -2.31981,-2.56015 0,0 0,0 0,0 0,0 0,0 0,0 0,0 0,0 0,0 0,0 0,0 0,0 0,0 0,0 0,0 0,0 0,0 0,0 -4e-5,-2e-5 -3e-5,-2e-5 -3e-5,-2e-5 0,0 0,-1e-5 2e-5,3e-5 0,0 0,0 0,0 0,0 0,0 0,0 0,0 0,0 0,0 0,0 0,0 0,0 0,0 0,0 0,0 0,0 0,0 0,0 0.005,0.01 0.58312,1.10063 1.58516,2.99313 0.56609,1.6634 0.87124,4.24175 -0.28944,6.82512 -1.41342,3.45306 -4.34026,5.88647 -8.96002,8.83694 -7.11252,4.333 -14.82526,6.86445 -25.61502,9.9207 -2.77676,0.7139 -5.49484,1.27834 -7.84614,1.10404 -1.49502,-0.17459 -2.73591,-0.39123 -3.19435,-0.93585 -0.37514,-0.25658 -0.73156,-0.90706 -1.01537,-1.60065 -0.43297,-0.95025 -0.55641,-2.35549 -0.69129,-4.07025 -0.28784,-4.58626 0.82382,-9.56665 2.12042,-15.1707 1.55778,-6.33742 3.63335,-12.65976 5.90024,-19.14277 0,0 4.55272,-14.2447 13.68498,-32.68698 z"
                   id="path2745"
                   inkscape:path-effect="#path-effect2747"
                   inkscape:original-d="m 141.2083,101.47955 c 0,0 -48.834337,98.6193 0,81.0174 48.83432,-17.60191 31.49,-33.54012 31.49,-33.54012"
                   sodipodi:nodetypes="csc" /></g></g></g></g></g></g></g></svg>
