<?xml version="1.0" encoding="UTF-8" standalone="no"?>
<svg
   fill="#000000"
   viewBox="0 0 160 160"
   width="160"
   height="160"
   version="1.1"
   id="svg4"
   sodipodi:docname="mail.svg"
   inkscape:version="1.2 (dc2aedaf03, 2022-05-15)"
   xmlns:inkscape="http://www.inkscape.org/namespaces/inkscape"
   xmlns:sodipodi="http://sodipodi.sourceforge.net/DTD/sodipodi-0.dtd"
   xmlns="http://www.w3.org/2000/svg"
   xmlns:svg="http://www.w3.org/2000/svg">
  <defs
     id="defs8" />
  <sodipodi:namedview
     id="namedview6"
     pagecolor="#505050"
     bordercolor="#eeeeee"
     borderopacity="1"
     inkscape:showpageshadow="0"
     inkscape:pageopacity="0"
     inkscape:pagecheckerboard="0"
     inkscape:deskcolor="#505050"
     showgrid="false"
     inkscape:zoom="5.135"
     inkscape:cx="61.148978"
     inkscape:cy="82.862707"
     inkscape:window-width="1913"
     inkscape:window-height="1416"
     inkscape:window-x="10"
     inkscape:window-y="10"
     inkscape:window-maximized="1"
     inkscape:current-layer="svg4" />
  <path
     d="M 11.428571,28.57143 H 148.57143 c 1.02857,0 1.99866,0.116057 2.91295,0.401771 L 95.3125,85.089276 c -8.45714,8.457143 -22.22366,8.457143 -30.680803,0 L 8.515623,28.973213 C 9.429909,28.687499 10.4,28.57143 11.428571,28.57143 Z M 0.401783,37.087053 43.370537,80.000001 0.401783,122.91295 C 0.116069,121.99866 0,121.02857 0,120 V 40.000001 C 0,38.97143 0.116057,38.001339 0.401771,37.087053 Z m 159.196437,0 C 159.88393,38.001339 160,38.97143 160,40.000001 V 120 c 0,1.02857 -0.11606,1.99866 -0.40177,2.91295 L 116.57366,80.000001 Z m -108.169649,50.970983 5.089286,5.145091 c 6.457143,6.457143 14.969194,9.654013 23.426337,9.654013 8.514286,0 16.969196,-3.19687 23.426346,-9.654013 l 5.14508,-5.145091 42.96876,42.968754 c -0.91429,0.28571 -1.88438,0.40178 -2.91295,0.40178 H 11.428571 c -1.028571,0 -1.998662,-0.11605 -2.912948,-0.40177 z"
     id="path215"
     sodipodi:nodetypes="ssccscscccssccsscccccssccsscc"
     style="stroke-width:5.71429;fill:#ffffff;fill-opacity:1" />
</svg>
