<?xml version="1.0" encoding="UTF-8" standalone="no"?>
<svg
   viewBox="0 0 160 160"
   width="160"
   height="160"
   version="1.1"
   id="svg3262"
   sodipodi:docname="pinterest.svg"
   inkscape:version="1.2 (dc2aedaf03, 2022-05-15)"
   xmlns:inkscape="http://www.inkscape.org/namespaces/inkscape"
   xmlns:sodipodi="http://sodipodi.sourceforge.net/DTD/sodipodi-0.dtd"
   xmlns="http://www.w3.org/2000/svg"
   xmlns:svg="http://www.w3.org/2000/svg">
  <defs
     id="defs3266" />
  <sodipodi:namedview
     id="namedview3264"
     pagecolor="#505050"
     bordercolor="#eeeeee"
     borderopacity="1"
     inkscape:showpageshadow="0"
     inkscape:pageopacity="0"
     inkscape:pagecheckerboard="0"
     inkscape:deskcolor="#505050"
     showgrid="false"
     inkscape:zoom="7.7560775"
     inkscape:cx="87.479786"
     inkscape:cy="75.747051"
     inkscape:window-width="2536"
     inkscape:window-height="1416"
     inkscape:window-x="10"
     inkscape:window-y="10"
     inkscape:window-maximized="1"
     inkscape:current-layer="svg3262" />
  <g
     id="g3270"
     transform="matrix(4,0,0,4,-16,-16)">
    <circle
       cx="24"
       cy="24"
       r="20"
       fill="#e60023"
       id="circle3258" />
    <path
       fill="#ffffff"
       d="m 24.443909,11.416138 c -8.632324,0 -13.215393,5.794616 -13.215393,12.103088 0,2.933838 1.561523,6.585388 4.059997,7.748413 0.378418,0.176209 0.581543,0.100037 0.668457,-0.266906 0.0669,-0.278443 0.403809,-1.636902 0.555359,-2.268433 0.04846,-0.201538 0.02466,-0.374634 -0.138428,-0.57312 -0.826965,-1.003052 -1.488464,-2.846131 -1.488464,-4.564575 0,-4.411561 3.339966,-8.679993 9.029968,-8.679993 4.913086,0 8.353089,3.34845 8.353089,8.136902 0,5.409973 -2.7323,9.158447 -6.286927,9.158447 -1.963073,0 -3.433044,-1.62384 -2.961547,-3.615356 0.565429,-2.376953 1.656921,-4.941529 1.656921,-6.658448 0,-1.5354 -0.823059,-2.816955 -2.529968,-2.816955 -2.006958,0 -3.61847,2.075378 -3.61847,4.856933 0,1.77002 0.59845,2.968445 0.59845,2.968445 0,0 -1.9823,8.381531 -2.345398,9.941529 -0.401977,1.72229 -0.2453,4.141601 -0.07135,5.723388 v 0 c 0.451111,0.17688 0.902405,0.35376 1.368775,0.498108 v 0 c 0.816894,-1.32782 2.034973,-3.505676 2.48645,-5.242248 0.243835,-0.936158 1.246887,-4.754639 1.246887,-4.754639 0.65155,1.243896 2.556152,2.296936 4.58313,2.296936 6.031494,0 10.378418,-5.546936 10.378418,-12.440002 0,-6.60846 -5.391541,-11.551514 -12.329956,-11.551514 z"
       id="path3260" />
  </g>
</svg>
