<?xml version="1.0" encoding="UTF-8" standalone="no"?>
<svg
   version="1.1"
   width="160"
   height="160"
   viewBox="0 0 160 160"
   xml:space="preserve"
   id="svg3362"
   sodipodi:docname="reddit.svg"
   inkscape:version="1.2 (dc2aedaf03, 2022-05-15)"
   xmlns:inkscape="http://www.inkscape.org/namespaces/inkscape"
   xmlns:sodipodi="http://sodipodi.sourceforge.net/DTD/sodipodi-0.dtd"
   xmlns="http://www.w3.org/2000/svg"
   xmlns:svg="http://www.w3.org/2000/svg"><sodipodi:namedview
   id="namedview3364"
   pagecolor="#505050"
   bordercolor="#eeeeee"
   borderopacity="1"
   inkscape:showpageshadow="0"
   inkscape:pageopacity="0"
   inkscape:pagecheckerboard="0"
   inkscape:deskcolor="#505050"
   showgrid="false"
   inkscape:zoom="4.1132812"
   inkscape:cx="128"
   inkscape:cy="128.24311"
   inkscape:window-width="2536"
   inkscape:window-height="1416"
   inkscape:window-x="10"
   inkscape:window-y="10"
   inkscape:window-maximized="1"
   inkscape:current-layer="svg3362" />
<desc
   id="desc3350">Created with Fabric.js 1.7.22</desc>
<defs
   id="defs3352">
</defs>
<g
   transform="matrix(0.45701228,0,0,0.45701228,80,80)"
   id="g3360">
	<g
   style="opacity:1;fill:none;fill-rule:nonzero;stroke:none;stroke-width:0;stroke-linecap:butt;stroke-linejoin:miter;stroke-miterlimit:10;stroke-dasharray:none"
   transform="matrix(3.89,0,0,3.89,-175.05,-175.05)"
   id="g3358">
	<circle
   cx="45"
   cy="45"
   r="45"
   style="opacity:1;fill:#ff4500;fill-rule:nonzero;stroke:none;stroke-width:1;stroke-linecap:butt;stroke-linejoin:miter;stroke-miterlimit:10;stroke-dasharray:none"
   id="circle3354" />
	<path
   d="m 75.011,45 c -0.134,-3.624 -3.177,-6.454 -6.812,-6.331 -1.611,0.056 -3.143,0.716 -4.306,1.823 -5.123,-3.49 -11.141,-5.403 -17.327,-5.537 l 2.919,-14.038 9.631,2.025 c 0.268,2.472 2.483,4.262 4.955,3.993 2.472,-0.268 4.262,-2.483 3.993,-4.955 -0.269,-2.472 -2.483,-4.262 -4.955,-3.993 -1.421,0.145 -2.696,0.973 -3.4,2.204 L 48.68,17.987 c -0.749,-0.168 -1.499,0.302 -1.667,1.063 0,0.011 0,0.011 0,0.022 l -3.322,15.615 c -6.264,0.101 -12.36,2.025 -17.55,5.537 -2.64,-2.483 -6.801,-2.36 -9.284,0.291 -2.483,2.64 -2.36,6.801 0.291,9.284 0.515,0.481 1.107,0.895 1.767,1.186 -0.045,0.66 -0.045,1.32 0,1.98 0,10.078 11.745,18.277 26.23,18.277 14.485,0 26.23,-8.188 26.23,-18.277 0.045,-0.66 0.045,-1.32 0,-1.98 2.26,-1.13 3.681,-3.457 3.636,-5.985 z m -45,4.508 c 0,-2.483 2.025,-4.508 4.508,-4.508 2.483,0 4.508,2.025 4.508,4.508 0,2.483 -2.025,4.508 -4.508,4.508 -2.494,-0.023 -4.508,-2.025 -4.508,-4.508 z m 26.141,12.55 v -0.179 c -3.199,2.405 -7.114,3.635 -11.119,3.468 -4.005,0.168 -7.919,-1.063 -11.119,-3.468 -0.425,-0.515 -0.347,-1.286 0.168,-1.711 0.447,-0.369 1.085,-0.369 1.544,0 2.707,1.98 6.007,2.987 9.362,2.83 3.356,0.179 6.667,-0.783 9.407,-2.74 0.492,-0.481 1.297,-0.47 1.779,0.022 0.481,0.492 0.47,1.297 -0.022,1.778 z M 55.537,54.34 c -0.078,0 -0.145,0 -0.224,0 l 0.034,-0.168 c -2.483,0 -4.508,-2.025 -4.508,-4.508 0,-2.483 2.025,-4.508 4.508,-4.508 2.483,0 4.508,2.025 4.508,4.508 0.1,2.484 -1.835,4.575 -4.318,4.676 z"
   style="opacity:1;fill:#ffffff;fill-rule:nonzero;stroke:none;stroke-width:1;stroke-linecap:butt;stroke-linejoin:miter;stroke-miterlimit:10;stroke-dasharray:none"
   stroke-linecap="round"
   id="path3356" />
</g>
</g>
</svg>
