<?xml version="1.0" encoding="UTF-8" standalone="no"?>
<svg
   width="160"
   height="160"
   viewBox="0 0 160 160"
   version="1.1"
   preserveAspectRatio="xMidYMid"
   id="svg699"
   sodipodi:docname="rust.svg"
   inkscape:version="1.2 (dc2aedaf03, 2022-05-15)"
   xmlns:inkscape="http://www.inkscape.org/namespaces/inkscape"
   xmlns:sodipodi="http://sodipodi.sourceforge.net/DTD/sodipodi-0.dtd"
   xmlns="http://www.w3.org/2000/svg"
   xmlns:svg="http://www.w3.org/2000/svg">
  <defs
     id="defs703" />
  <sodipodi:namedview
     id="namedview701"
     pagecolor="#505050"
     bordercolor="#eeeeee"
     borderopacity="1"
     inkscape:showpageshadow="0"
     inkscape:pageopacity="0"
     inkscape:pagecheckerboard="0"
     inkscape:deskcolor="#505050"
     showgrid="false"
     inkscape:zoom="4.0117188"
     inkscape:cx="128"
     inkscape:cy="128"
     inkscape:window-width="1913"
     inkscape:window-height="1416"
     inkscape:window-x="10"
     inkscape:window-y="10"
     inkscape:window-maximized="1"
     inkscape:current-layer="svg699" />
  <g
     id="g697"
     transform="scale(0.625)"
     style="fill:#ffffff">
    <path
       d="m 254.25117,124.86188 -10.74739,-6.65291 c -0.0905,-1.04685 -0.19322,-2.09126 -0.30574,-3.13078 l 9.2358,-8.61453 c 0.93924,-0.87564 1.35994,-2.17198 1.10556,-3.42674 -0.24704,-1.25965 -1.13001,-2.29672 -2.33096,-2.74433 l -11.80647,-4.414886 c -0.29595,-1.022396 -0.60659,-2.037453 -0.92456,-3.047619 l 7.36467,-10.228847 c 0.7509,-1.039517 0.905,-2.392112 0.41581,-3.578384 -0.48918,-1.18138 -1.55805,-2.027669 -2.82259,-2.235573 l -12.44975,-2.025223 c -0.48429,-0.944126 -0.98815,-1.873577 -1.4969,-2.795689 l 5.23183,-11.483605 c 0.53565,-1.169151 0.42559,-2.529084 -0.28862,-3.590614 -0.71177,-1.066422 -1.91761,-1.690132 -3.20416,-1.641214 l -12.63563,0.440266 c -0.65307,-0.816938 -1.31836,-1.626538 -1.99588,-2.421463 l 2.90331,-12.30788 c 0.29351,-1.249866 -0.0758,-2.558435 -0.9857,-3.465872 -0.90255,-0.904991 -2.21356,-1.279217 -3.46343,-0.985707 l -12.30543,2.900864 c -0.79737,-0.675074 -1.60698,-1.342811 -2.42636,-1.995872 l 0.44271,-12.635634 c 0.0489,-1.279218 -0.57479,-2.494841 -1.64121,-3.204158 -1.06887,-0.71421 -2.42146,-0.82183 -3.58817,-0.291065 l -11.48116,5.234273 c -0.927,-0.508751 -1.85645,-1.012611 -2.79569,-1.49935 l -2.03011,-12.45219 c -0.20546,-1.262096 -1.05175,-2.33341 -2.23557,-2.822594 -1.18139,-0.4916304 -2.53643,-0.3326454 -3.57594,0.415807 l -10.23619,7.364671 c -1.00772,-0.320415 -2.02033,-0.628602 -3.04272,-0.922112 L 155.71964,4.7940075 c -0.44761,-1.2033937 -1.48468,-2.0863716 -2.74433,-2.3358557 -1.2572,-0.2470381 -2.5511,0.1712146 -3.42429,1.1055568 l -8.61454,9.2431404 c -1.03951,-0.114959 -2.08637,-0.220133 -3.13078,-0.305741 L 131.15279,1.7512803 C 130.48016,0.66284491 129.289,0 128.00734,0 c -1.28167,0 -2.47283,0.66284491 -3.14301,1.7512803 l -6.65291,10.7498277 c -1.04686,0.08561 -2.09371,0.190782 -3.13323,0.305741 l -8.61698,-9.2431404 c -0.87319,-0.9343422 -2.16953,-1.3525949 -3.42429,-1.1055568 -1.25965,0.25193 -2.29672,1.132462 -2.74433,2.3358557 L 95.877704,16.60292 c -1.022396,0.29351 -2.035007,0.604143 -3.045173,0.922112 L 82.598792,10.160361 C 81.559275,9.4094627 80.204234,9.2504777 79.020408,9.744554 c -1.18138,0.489184 -2.030115,1.560498 -2.235573,2.822594 l -2.030115,12.45219 c -0.939234,0.486739 -1.868685,0.988153 -2.795689,1.49935 L 60.477872,21.284415 c -1.166705,-0.533211 -2.526638,-0.423145 -3.588168,0.291065 -1.066422,0.709317 -1.690132,1.92494 -1.641214,3.204158 l 0.440266,12.635634 c -0.816938,0.653061 -1.626538,1.320798 -2.426354,1.995872 L 40.956967,36.51028 c -1.249866,-0.291064 -2.56088,0.08072 -3.465872,0.985707 -0.909883,0.907437 -1.279217,2.216006 -0.985706,3.465872 l 2.898418,12.30788 c -0.672629,0.797371 -1.33792,1.604525 -1.990981,2.421463 L 24.777192,55.250936 c -1.274326,-0.03669 -2.492395,0.574792 -3.204158,1.641214 -0.71421,1.06153 -0.82183,2.421463 -0.291065,3.590614 l 5.234273,11.483605 c -0.508751,0.922112 -1.012611,1.851563 -1.49935,2.795689 l -12.449744,2.025223 c -1.264542,0.205458 -2.330964,1.051747 -2.822594,2.235573 -0.4891844,1.186272 -0.3301995,2.538867 0.415807,3.578384 l 7.364671,10.228847 c -0.320415,1.010166 -0.631047,2.025223 -0.924558,3.047619 L 4.7915616,100.29259 c -1.1985019,0.44761 -2.0814798,1.48468 -2.3309639,2.74433 -0.249484,1.2572 0.1687687,2.5511 1.1055568,3.42674 l 9.2382485,8.61453 c -0.114959,1.03952 -0.217687,2.08637 -0.305741,3.13078 L 1.7512803,124.86188 C 0.66284491,125.53451 0,126.72323 0,128.00734 c 0,1.28411 0.66284491,2.47282 1.7512803,3.14301 l 10.7473817,6.65291 c 0.08805,1.04685 0.190782,2.09126 0.305741,3.13078 l -9.2382485,8.61698 c -0.9367881,0.87319 -1.3550408,2.16953 -1.1055568,3.42429 0.2494841,1.25965 1.132462,2.29428 2.3309639,2.74433 l 11.8089124,4.41489 c 0.293511,1.02239 0.604143,2.03745 0.924558,3.04761 l -7.364671,10.2313 c -0.7484524,1.04196 -0.9074374,2.39455 -0.415807,3.57594 0.49163,1.18627 1.560498,2.03256 2.82504,2.23557 l 12.447298,2.02522 c 0.486739,0.94413 0.985707,1.87358 1.49935,2.80058 l -5.234273,11.47872 c -0.533211,1.1667 -0.423145,2.52419 0.291065,3.59061 0.714209,1.06887 1.929832,1.69258 3.204158,1.64121 l 12.630742,-0.44271 c 0.657953,0.82183 1.320798,1.62654 1.995873,2.42636 l -2.898418,12.31032 c -0.293511,1.24742 0.07582,2.5511 0.985706,3.45854 0.902546,0.91233 2.216006,1.27677 3.465872,0.98326 l 12.305435,-2.89842 c 0.799816,0.67997 1.609416,1.34036 2.426354,1.99098 L 55.24849,231.2277 c -0.04892,1.27922 0.574792,2.49239 1.641214,3.2066 1.06153,0.71177 2.421463,0.81939 3.588168,0.28618 l 11.481159,-5.23183 c 0.924558,0.51364 1.854009,1.01261 2.795689,1.49935 l 2.030115,12.44485 c 0.205458,1.26699 1.051747,2.3383 2.235573,2.82504 1.181381,0.49163 2.538867,0.33265 3.578384,-0.41336 l 10.228847,-7.36956 c 1.010166,0.32041 2.025223,0.63349 3.047619,0.927 l 4.414892,11.80402 c 0.4476,1.1985 1.48467,2.08637 2.74432,2.33097 1.25721,0.25437 2.5511,-0.16633 3.42429,-1.10556 l 8.61699,-9.23825 c 1.03951,0.11985 2.08637,0.22013 3.13322,0.31308 l 6.65291,10.74738 c 0.67019,1.08354 1.86135,1.75128 3.14301,1.75128 1.28166,0 2.47283,-0.66529 3.14546,-1.75128 l 6.65291,-10.74738 c 1.04685,-0.093 2.09126,-0.19323 3.13078,-0.31308 l 8.61453,9.23825 c 0.8732,0.93923 2.16954,1.35993 3.4243,1.10556 1.25964,-0.24704 2.29672,-1.13247 2.74432,-2.33097 l 4.41489,-11.80402 c 1.02239,-0.29351 2.03745,-0.60659 3.04762,-0.927 l 10.23129,7.36956 c 1.03952,0.74601 2.39456,0.90499 3.57594,0.41336 1.18383,-0.48674 2.03011,-1.5605 2.23557,-2.82504 l 2.03012,-12.44485 c 0.93923,-0.48674 1.86868,-0.99305 2.79569,-1.49935 l 11.48116,5.23183 c 1.1667,0.53321 2.52419,0.42559 3.58816,-0.28618 1.06643,-0.71421 1.68769,-1.92494 1.64122,-3.2066 l -0.44027,-12.63808 c 0.81694,-0.65306 1.62654,-1.31101 2.42391,-1.99098 l 12.30543,2.89842 c 1.24987,0.29351 2.56088,-0.0709 3.46343,-0.98326 0.90988,-0.90744 1.27922,-2.21112 0.98571,-3.45854 l -2.89842,-12.31032 c 0.67507,-0.79982 1.34036,-1.60453 1.99098,-2.42636 l 12.63563,0.44271 c 1.27433,0.0514 2.4924,-0.57234 3.20416,-1.64121 0.71421,-1.06642 0.82428,-2.42391 0.28862,-3.59061 l -5.23183,-11.47872 c 0.5112,-0.927 1.01261,-1.85645 1.49691,-2.80058 l 12.44974,-2.02522 c 1.26699,-0.20301 2.33341,-1.0493 2.8226,-2.23557 0.48918,-1.18139 0.33509,-2.53398 -0.41581,-3.57594 l -7.36467,-10.2313 c 0.31797,-1.01016 0.6286,-2.02522 0.92456,-3.04761 l 11.80646,-4.41489 c 1.20095,-0.45005 2.08637,-1.48468 2.33097,-2.74433 0.25437,-1.2572 -0.16633,-2.5511 -1.10556,-3.42429 l -9.2358,-8.61698 c 0.11251,-1.03952 0.21524,-2.08638 0.30574,-3.13078 l 10.74738,-6.65291 C 255.33715,130.48016 256,129.289 256,128.00734 c 0,-1.28167 -0.6604,-2.47283 -1.74883,-3.14546 z m -71.93213,89.15631 c -4.10426,-0.88542 -6.71406,-4.93098 -5.83352,-9.04747 0.87808,-4.11159 4.92119,-6.72873 9.023,-5.8433 4.10426,0.87808 6.71895,4.93098 5.83842,9.04013 -0.88053,4.10914 -4.92609,6.72873 -9.0279,5.85064 z m -3.65176,-24.69892 c -3.74471,-0.80226 -7.42827,1.58006 -8.23053,5.33211 l -3.81564,17.80631 c -11.77467,5.34434 -24.85057,8.31369 -38.62111,8.31369 -14.08607,0 -27.44569,-3.1161 -39.430712,-8.68791 l -3.813192,-17.80632 c -0.802263,-3.74715 -4.485822,-6.13437 -8.228083,-5.32966 l -15.719942,3.37537 c -2.917985,-3.00359 -5.632958,-6.20286 -8.127799,-9.58068 h 76.488878 c 0.86586,0 1.44309,-0.15654 1.44309,-0.94412 v -27.05679 c 0,-0.78759 -0.57723,-0.94413 -1.44309,-0.94413 h -22.3704 v -17.15081 h 24.19506 c 2.20867,0 11.80891,0.63105 14.87854,12.90224 0.96125,3.77406 3.07208,16.05015 4.51518,19.98074 1.4382,4.40755 7.29374,13.21287 13.53328,13.21287 h 38.11481 c 0.43293,0 0.89521,-0.0489 1.38194,-0.13697 -2.64404,3.59306 -5.5449,6.99289 -8.66834,10.17015 z M 72.876252,213.64641 c -4.104258,0.88542 -8.144921,-1.73171 -9.027899,-5.84331 -0.878086,-4.11893 1.731713,-8.16204 5.83597,-9.04746 4.104258,-0.87809 8.147367,1.73905 9.027899,5.85064 0.878086,4.10915 -1.734159,8.1596 -5.83597,9.04013 z M 43.860277,95.985325 c 1.702361,3.842543 -0.02935,8.345485 -3.867003,10.045405 -3.837652,1.70481 -8.328365,-0.0294 -10.030727,-3.87434 -1.702362,-3.844994 0.02935,-8.340598 3.867003,-10.045406 3.840098,-1.702362 8.328365,0.02935 10.030727,3.874341 z m -8.917833,21.140105 16.375449,-7.27662 c 3.497669,-1.55316 5.077735,-5.65252 3.524574,-9.15753 L 51.469541,93.064893 H 64.733777 V 152.85301 H 37.972942 c -2.32118,-8.15959 -3.566155,-16.77168 -3.566155,-25.67239 0,-3.39739 0.183445,-6.75564 0.535657,-10.05519 z m 71.861196,-5.80662 V 93.695941 h 31.58664 c 1.63143,0 11.52029,1.885806 11.52029,9.279829 0,6.13927 -7.5848,8.3406 -13.82191,8.3406 h -29.28502 z m 114.79202,15.86181 c 0,2.3383 -0.0856,4.65214 -0.25682,6.94886 h -9.60269 c -0.96125,0 -1.34771,0.63105 -1.34771,1.57273 v 4.41 c 0,10.38049 -5.85309,12.63808 -10.98219,13.21287 -4.8845,0.55033 -10.29978,-2.04479 -10.96751,-5.03371 -2.8813,-16.20668 -7.68264,-19.66766 -15.265,-25.64794 9.40946,-5.97539 19.20049,-14.79049 19.20049,-26.58962 0,-12.740808 -8.73439,-20.765879 -14.68777,-24.701368 -8.35282,-5.505771 -17.60085,-6.608882 -20.09569,-6.608882 H 58.278988 C 71.746236,49.713369 89.997707,39.066269 110.64129,35.191929 l 11.70618,12.280975 c 2.64649,2.77123 7.02958,2.873958 9.79837,0.225025 l 13.09791,-12.528014 c 27.44569,5.109532 50.68195,22.194298 64.07338,45.63357 l -8.96675,20.252235 c -1.54827,3.50501 0.0318,7.60437 3.52702,9.15753 l 17.26332,7.66797 c 0.2984,3.06474 0.45494,6.16128 0.45494,9.2994 z M 122.35237,24.745395 c 3.03294,-2.905756 7.84407,-2.790797 10.74738,0.247038 2.89842,3.045173 2.78835,7.861194 -0.25193,10.764504 -3.03295,2.905755 -7.84408,2.793243 -10.74738,-0.249485 -2.89598,-3.040281 -2.78591,-7.856302 0.25193,-10.762057 z m 88.98264,71.609264 c 1.69992,-3.842544 6.19063,-5.576703 10.02829,-3.871895 3.83765,1.702362 5.56936,6.202859 3.867,10.045406 -1.69992,3.84499 -6.19063,5.57915 -10.03073,3.87434 -3.83276,-1.70236 -5.56447,-6.20042 -3.86456,-10.047851 z"
       fill="#000000"
       id="path695"
       style="fill:#ffffff" />
  </g>
</svg>
