<?xml version="1.0" encoding="UTF-8" standalone="no"?>
<svg
   viewBox="0 0 160 160"
   width="160"
   height="160"
   version="1.1"
   id="svg4"
   sodipodi:docname="twitter.svg"
   inkscape:version="1.2 (dc2aedaf03, 2022-05-15)"
   xmlns:inkscape="http://www.inkscape.org/namespaces/inkscape"
   xmlns:sodipodi="http://sodipodi.sourceforge.net/DTD/sodipodi-0.dtd"
   xmlns="http://www.w3.org/2000/svg"
   xmlns:svg="http://www.w3.org/2000/svg">
  <defs
     id="defs8" />
  <sodipodi:namedview
     id="namedview6"
     pagecolor="#505050"
     bordercolor="#eeeeee"
     borderopacity="1"
     inkscape:showpageshadow="0"
     inkscape:pageopacity="0"
     inkscape:pagecheckerboard="0"
     inkscape:deskcolor="#505050"
     showgrid="false"
     inkscape:zoom="3.7822847"
     inkscape:cx="60.14883"
     inkscape:cy="106.94594"
     inkscape:window-width="2536"
     inkscape:window-height="1416"
     inkscape:window-x="10"
     inkscape:window-y="10"
     inkscape:window-maximized="1"
     inkscape:current-layer="svg4" />
  <path
     fill="#03a9f4"
     d="m 159.95,30.830406 c -5.87584,2.6026 -12.1958,4.339147 -18.86218,5.160786 6.77741,-4.023814 11.9915,-10.441488 14.43865,-18.022781 -6.34218,3.717366 -13.3683,6.448763 -20.84301,7.887743 C 128.71436,19.527307 120.2004,15.6012 110.76708,15.6012 c -18.120488,0 -32.807856,14.55857 -32.807856,32.51029 0,2.540423 0.297567,5.014225 0.85717,7.416966 C 51.555716,54.160536 27.377298,41.200833 11.202096,21.534772 8.359666,26.340255 6.760799,31.967378 6.760799,37.905391 c 0,11.285334 5.778127,21.220515 14.589659,27.074144 C 15.972048,64.815207 10.90897,63.31849 6.476556,60.92019 c 0,0.09771 0,0.244271 0,0.381952 0,15.771044 11.311982,28.903958 26.305799,31.89295 -2.74028,0.750579 -5.636005,1.168061 -8.620556,1.168061 -2.118498,0 -4.183701,-0.23983 -6.182285,-0.599575 4.174819,12.888642 16.286235,22.308632 30.636064,22.588432 -11.227598,8.70495 -25.368686,13.91903 -40.744455,13.91903 -2.655895,0 -5.2540536,-0.15101 -7.821123,-0.46189 14.527481,9.19791 31.777477,14.58965 50.293242,14.58965 60.335008,0 93.342728,-49.547105 93.342728,-92.529972 0,-1.407891 -0.0444,-2.811341 -0.11103,-4.197026 6.43988,-4.547887 11.9915,-10.286043 16.37506,-16.841396"
     id="path2"
     style="stroke-width:4.44129" />
</svg>
