<?xml version="1.0" encoding="UTF-8" standalone="no"?>
<!-- Created with Inkscape (http://www.inkscape.org/) -->

<svg
   width="44.918514mm"
   height="35.669289mm"
   viewBox="0 0 44.918514 35.669289"
   version="1.1"
   id="svg5"
   xml:space="preserve"
   inkscape:version="1.2.1 (9c6d41e410, 2022-07-14)"
   sodipodi:docname="vulkan.svg"
   xmlns:inkscape="http://www.inkscape.org/namespaces/inkscape"
   xmlns:sodipodi="http://sodipodi.sourceforge.net/DTD/sodipodi-0.dtd"
   xmlns="http://www.w3.org/2000/svg"
   xmlns:svg="http://www.w3.org/2000/svg"><sodipodi:namedview
     id="namedview7"
     pagecolor="#505050"
     bordercolor="#eeeeee"
     borderopacity="1"
     inkscape:showpageshadow="0"
     inkscape:pageopacity="0"
     inkscape:pagecheckerboard="0"
     inkscape:deskcolor="#505050"
     inkscape:document-units="mm"
     showgrid="false"
     inkscape:zoom="1.8761364"
     inkscape:cx="24.251968"
     inkscape:cy="107.13507"
     inkscape:window-width="2536"
     inkscape:window-height="1389"
     inkscape:window-x="10"
     inkscape:window-y="37"
     inkscape:window-maximized="1"
     inkscape:current-layer="layer1" /><defs
     id="defs2" /><g
     inkscape:label="Layer 1"
     inkscape:groupmode="layer"
     id="layer1"
     transform="translate(-1.5407431,-6.165355)"><g
       id="g10244"
       transform="translate(-18.419516,-7.374221)"><path
         style="fill:#ac172e;fill-opacity:1;stroke:none;stroke-width:1.05833;stroke-linecap:round;stroke-linejoin:round;stroke-miterlimit:1.3;paint-order:stroke fill markers;stop-color:#000000"
         d="m 33.791289,42.621026 c 0,0 -16.23994,-7.71093 -13.52495,-13.75209 2.71498,-6.04116 9.2442,-7.36478 14.26966,-7.44873 5.02547,-0.084 15.95266,-0.75772 26.02781,6.72003 10.07515,7.47775 -0.41379,2.22522 -2.18212,1.5351 -1.76832,-0.69012 -21.91652,-6.02989 -27.61476,-0.3696 -5.69825,5.66029 -0.35144,10.26535 3.02436,13.31529 z"
         id="path302" /><path
         style="fill:#ac172e;fill-opacity:1;stroke:none;stroke-width:1.05833;stroke-linecap:round;stroke-linejoin:round;stroke-miterlimit:1.3;stroke-opacity:1;paint-order:stroke fill markers;stop-color:#000000"
         d="m 33.799509,31.737526 c 0,0 2.30223,-2.40758 6.62988,-1.98791 2.6643,7.93081 3.59711,9.53984 3.59711,9.53984 l 3.06185,-9.50754 c 0,0 2.76945,-0.67787 6.96079,1.49808 -5.7188,17.68261 -6.01445,17.92887 -6.01445,17.92887 h -8.63595 z"
         id="path4997"
         sodipodi:nodetypes="cccccccc" /><path
         style="fill:#ac172e;fill-opacity:1;stroke:none;stroke-width:1.05833;stroke-linecap:round;stroke-linejoin:round;stroke-miterlimit:1.3;stroke-opacity:1;paint-order:stroke fill markers;stop-color:#000000"
         d="m 29.594069,19.180136 c 0,0 4.81823,-1.0832 7.5974,-0.59192 -1.26371,-3.96903 -1.67335,-5.04864 -1.67335,-5.04864 l -7.74133,0.0932 z"
         id="path8848" /><path
         style="fill:#ac172e;fill-opacity:1;stroke:none;stroke-width:1.05833;stroke-linecap:round;stroke-linejoin:round;stroke-miterlimit:1.3;stroke-opacity:1;paint-order:stroke fill markers;stop-color:#000000"
         d="m 52.098949,13.554806 7.61086,-0.008 -2.95762,8.95293 c 0,0 -3.01725,-2.33371 -6.43545,-2.42091 1.91541,-6.06618 1.78221,-6.52399 1.78221,-6.52399 z"
         id="path8850" /></g></g></svg>
