<?xml version="1.0" encoding="UTF-8" standalone="no"?>
<svg
   id="vlpa"
   version="1.1"
   viewBox="0 0 160 160"
   xml:space="preserve"
   sodipodi:docname="vulkan.svg"
   width="160"
   height="160"
   inkscape:export-filename="vulkan2.svg"
   inkscape:export-xdpi="96"
   inkscape:export-ydpi="96"
   inkscape:version="1.2 (dc2aedaf03, 2022-05-15)"
   xmlns:inkscape="http://www.inkscape.org/namespaces/inkscape"
   xmlns:sodipodi="http://sodipodi.sourceforge.net/DTD/sodipodi-0.dtd"
   xmlns="http://www.w3.org/2000/svg"
   xmlns:svg="http://www.w3.org/2000/svg"
   xmlns:rdf="http://www.w3.org/1999/02/22-rdf-syntax-ns#"
   xmlns:cc="http://creativecommons.org/ns#"
   xmlns:dc="http://purl.org/dc/elements/1.1/"><defs
   id="defs1015" /><sodipodi:namedview
   id="namedview1013"
   pagecolor="#505050"
   bordercolor="#eeeeee"
   borderopacity="1"
   inkscape:showpageshadow="0"
   inkscape:pageopacity="0"
   inkscape:pagecheckerboard="0"
   inkscape:deskcolor="#505050"
   showgrid="false"
   inkscape:zoom="4.8769092"
   inkscape:cx="81.404017"
   inkscape:cy="102.62648"
   inkscape:window-width="1399"
   inkscape:window-height="1416"
   inkscape:window-x="10"
   inkscape:window-y="10"
   inkscape:window-maximized="1"
   inkscape:current-layer="g5651" /><title
   id="title980">Vulkan API logo</title><desc
   id="desc982">A low-overhead graphics API from Khronos Group</desc><metadata
   id="metadata984"><rdf:RDF><cc:Work
       rdf:about=""><dc:format>image/svg+xml</dc:format><dc:type
         rdf:resource="http://purl.org/dc/dcmitype/StillImage" /><dc:title>Vulkan API logo</dc:title></cc:Work></rdf:RDF></metadata>
<g
   id="g5651"
   transform="matrix(0.2579871,0,0,0.2579871,1.0377545e-6,42.155097)"><g
     id="g5729"
     transform="translate(0,-81.200095)"><path
       d="M 353.90228,455.7862 H 263.29331 L 145.1077,89.38601 h 82.37179 l 81.29738,256.83935 h 1.02069 L 392.16935,89.38601 h 82.909 z"
       id="path988"
       style="fill:#ac162c;stroke-width:1.79338" /><path
       d="m 95.764041,127.38601 c 23.429499,-68.9 163.507999,-94.2 313.057999,-56.4 89.73,22.6 162.511,66.5 211.364,110 -21.7346,-57.6 -126.619,-140 -272.181,-168 -163.508,-31.8 -326.018999,-3.8499996 -345.958999,69.1 -14.4565,52.7 49.0524,114 147.555999,157 -44.0674,-35.8 -65.602599,-76.1 -53.439199,-112 z"
       fill="#ac162c"
       id="path1004"
       style="stroke-width:0.998499" /></g></g>
</svg>
