<?xml version="1.0" encoding="UTF-8" standalone="no"?>
<svg
   width="160"
   height="160"
   version="1.1"
   id="svg1668"
   sodipodi:docname="youtube.svg"
   inkscape:version="1.2 (dc2aedaf03, 2022-05-15)"
   xmlns:inkscape="http://www.inkscape.org/namespaces/inkscape"
   xmlns:sodipodi="http://sodipodi.sourceforge.net/DTD/sodipodi-0.dtd"
   xmlns="http://www.w3.org/2000/svg"
   xmlns:svg="http://www.w3.org/2000/svg">
  <defs
     id="defs1672" />
  <sodipodi:namedview
     id="namedview1670"
     pagecolor="#505050"
     bordercolor="#eeeeee"
     borderopacity="1"
     inkscape:showpageshadow="0"
     inkscape:pageopacity="0"
     inkscape:pagecheckerboard="0"
     inkscape:deskcolor="#505050"
     showgrid="false"
     inkscape:zoom="2.1336478"
     inkscape:cx="-35.619749"
     inkscape:cy="109.90567"
     inkscape:window-width="1913"
     inkscape:window-height="1416"
     inkscape:window-x="10"
     inkscape:window-y="10"
     inkscape:window-maximized="1"
     inkscape:current-layer="svg1668" />
  <g
     id="g1676"
     transform="matrix(1.024125,0,0,1.024125,-1.2655843,23.653844)">
    <path
       d="M 154,17.5 C 152.18,10.77 146.93,5.5 140.2,3.7 131.16,0.21 43.6,-1.5 18.2,3.8 11.47,5.62 6.2,10.87 4.4,17.6 0.32,35.5 0.01,74.2 4.5,92.5 c 1.82,6.73 7.07,12 13.8,13.8 17.9,4.12 103,4.7 122,0 6.73,-1.82 12,-7.07 13.8,-13.8 4.35,-19.5 4.66,-55.8 -0.1,-75 z"
       fill="#ff0000"
       id="path1664" />
    <path
       d="M 105,55 64.2,31.6 v 46.8 z"
       fill="#ffffff"
       id="path1666" />
  </g>
</svg>
