<?xml version="1.0" encoding="UTF-8" standalone="no"?>
<svg
   viewBox="0 0 160 160"
   width="160"
   height="160"
   version="1.1"
   id="svg6079"
   sodipodi:docname="lmms.svg"
   inkscape:version="1.2 (dc2aedaf03, 2022-05-15)"
   xmlns:inkscape="http://www.inkscape.org/namespaces/inkscape"
   xmlns:sodipodi="http://sodipodi.sourceforge.net/DTD/sodipodi-0.dtd"
   xmlns="http://www.w3.org/2000/svg"
   xmlns:svg="http://www.w3.org/2000/svg">
  <defs
     id="defs6083" />
  <sodipodi:namedview
     id="namedview6081"
     pagecolor="#505050"
     bordercolor="#eeeeee"
     borderopacity="1"
     inkscape:showpageshadow="0"
     inkscape:pageopacity="0"
     inkscape:pagecheckerboard="0"
     inkscape:deskcolor="#505050"
     showgrid="false"
     inkscape:zoom="2.7421875"
     inkscape:cx="53.97151"
     inkscape:cy="131.46439"
     inkscape:window-width="1399"
     inkscape:window-height="1416"
     inkscape:window-x="10"
     inkscape:window-y="10"
     inkscape:window-maximized="1"
     inkscape:current-layer="svg6079" />
  <g
     id="g6088"
     transform="matrix(4.4444444,0,0,4.4444444,-26.666666,-26.666666)">
    <path
       fill="#00c853"
       d="M 39.422,42 H 8.578 C 7.154,42 6,40.846 6,39.422 V 8.578 C 6,7.154 7.154,6 8.578,6 H 39.422 C 40.846,6 42,7.154 42,8.578 V 39.422 C 42,40.846 40.846,42 39.422,42 Z"
       id="path6073" />
    <polygon
       fill="#388e3c"
       points="15,22.721 24,17.442 33,22.721 33,28.293 29,30.64 29,35.919 33.5,38.558 38,35.919 38,34 38,30.64 38,20 24,12 10,20 10,30.64 10,34 10,35.919 14.5,38.558 19,35.919 19,30.64 15,28.293 "
       id="polygon6075" />
    <polygon
       fill="#ffffff"
       points="15,20.721 24,15.442 33,20.721 33,26.293 29,28.64 29,33.919 33.5,36.558 38,33.919 38,32 38,28.64 38,18 24,10 10,18 10,28.64 10,32 10,33.919 14.5,36.558 19,33.919 19,28.64 15,26.293 "
       id="polygon6077" />
  </g>
</svg>
