<?xml version="1.0" encoding="UTF-8" standalone="no"?>
<svg
   viewBox="0 0 48 48"
   width="48px"
   height="48px"
   version="1.1"
   id="svg462"
   sodipodi:docname="typescript.svg"
   inkscape:version="1.2.1 (9c6d41e410, 2022-07-14)"
   xmlns:inkscape="http://www.inkscape.org/namespaces/inkscape"
   xmlns:sodipodi="http://sodipodi.sourceforge.net/DTD/sodipodi-0.dtd"
   xmlns="http://www.w3.org/2000/svg"
   xmlns:svg="http://www.w3.org/2000/svg">
  <defs
     id="defs466" />
  <sodipodi:namedview
     id="namedview464"
     pagecolor="#505050"
     bordercolor="#eeeeee"
     borderopacity="1"
     inkscape:showpageshadow="0"
     inkscape:pageopacity="0"
     inkscape:pagecheckerboard="0"
     inkscape:deskcolor="#505050"
     showgrid="false"
     inkscape:zoom="5.484375"
     inkscape:cx="14.678063"
     inkscape:cy="37.74359"
     inkscape:window-width="1399"
     inkscape:window-height="1389"
     inkscape:window-x="10"
     inkscape:window-y="37"
     inkscape:window-maximized="1"
     inkscape:current-layer="svg462" />
  <g
     id="g1353"
     transform="translate(-6,-6)">
    <rect
       width="48"
       height="48"
       x="6"
       y="6"
       fill="#1976d2"
       id="rect456"
       style="stroke-width:1.33333" />
    <polygon
       fill="#ffffff"
       points="18.984,25.264 18.984,40 22.753,40 22.753,25.264 27.49,25.264 27.49,22 14.227,22 14.227,25.264 "
       id="polygon458"
       transform="matrix(1.3333333,0,0,1.3333333,-2,-2)" />
    <path
       fill="#ffffff"
       d="m 50.258667,32.778667 c 0,0 -2.382667,-1.589334 -5.076,-1.589334 -2.693334,0 -3.662667,1.28 -3.662667,2.648 0,3.530667 9.841333,3.177334 9.841333,10.282667 0,10.945333 -15.005333,6.090667 -15.005333,6.090667 V 44.96 c 0,0 2.869333,2.162667 6.310667,2.162667 3.441333,0 3.310666,-2.250667 3.310666,-2.56 0,-3.265334 -9.753333,-3.265334 -9.753333,-10.504 C 36.224,24.217333 50.434667,28.1 50.434667,28.1 Z"
       id="path460"
       style="stroke-width:1.33333" />
  </g>
</svg>
