<?xml version="1.0" encoding="UTF-8" standalone="no"?>
<svg
   fill="#000000"
   viewBox="0 0 160 160"
   width="160"
   height="160"
   version="1.1"
   id="svg6283"
   sodipodi:docname="ue.svg"
   inkscape:version="1.2 (dc2aedaf03, 2022-05-15)"
   xmlns:inkscape="http://www.inkscape.org/namespaces/inkscape"
   xmlns:sodipodi="http://sodipodi.sourceforge.net/DTD/sodipodi-0.dtd"
   xmlns="http://www.w3.org/2000/svg"
   xmlns:svg="http://www.w3.org/2000/svg">
  <defs
     id="defs6287" />
  <sodipodi:namedview
     id="namedview6285"
     pagecolor="#505050"
     bordercolor="#eeeeee"
     borderopacity="1"
     inkscape:showpageshadow="0"
     inkscape:pageopacity="0"
     inkscape:pagecheckerboard="0"
     inkscape:deskcolor="#505050"
     showgrid="false"
     inkscape:zoom="7.4458344"
     inkscape:cx="85.685494"
     inkscape:cy="70.442071"
     inkscape:window-width="1399"
     inkscape:window-height="1416"
     inkscape:window-x="10"
     inkscape:window-y="10"
     inkscape:window-maximized="1"
     inkscape:current-layer="svg6283" />
  <path
     d="M 80,0 C 35.855979,0 0,35.855979 0,80 c 0,44.14402 35.855979,80 80,80 44.14402,0 80,-35.85598 80,-80 C 160,35.855979 124.14402,0 80,0 Z m 0,6.9565217 c 40.38043,0 73.04348,32.6630433 73.04348,73.0434783 0,40.38043 -32.66305,73.04348 -73.04348,73.04348 C 39.619565,153.04348 6.9565217,120.38043 6.9565217,80 6.9565217,39.619565 39.619565,6.9565217 80,6.9565217 Z M 75.203805,29.565217 C 47.90761,36.059784 16.195652,69.23913 19.279892,94.347826 34.130435,68.152174 44.184783,64.592393 46.91576,64.592393 c 2.744567,0 4.225544,1.480977 4.225544,4.646737 v 39.03533 c 0,4.85054 -4.687499,4.2663 -7.798911,3.79076 11.521739,17.1875 38.396737,18.36956 38.396737,18.36956 l 12.038046,-13.08424 11.603254,9.91848 c 17.67663,-11.44022 29.34783,-30.828801 29.34783,-33.763583 -8.75,9.646733 -16.26359,11.399453 -17.94837,11.399453 -1.68478,0 -4.42935,-0.20379 -4.42935,-2.52717 V 56.07337 c 0,-4.021739 11.05979,-17.214674 14.55163,-21.65761 -23.00271,6.032609 -31.861408,17.527176 -31.861408,17.527176 0,0 -3.097826,-2.323371 -9.91848,-2.323371 C 87.67663,51.793478 91.25,55.733697 91.25,60.380435 v 42.404895 c 0,0 -7.608696,5.48913 -12.038042,5.48913 -4.429349,0 -7.595109,-1.88859 -7.595109,-5.27174 V 52.350543 c 0,0 -6.331524,4.442935 -6.331524,-8.654891 0,-6.535325 9.91848,-14.130435 9.91848,-14.130435 z"
     id="path6281"
     style="stroke-width:3.47826;fill:#ffffff" />
</svg>
